<svg width="300" height="244" viewBox="0 0 300 244" fill="none" xmlns="http://www.w3.org/2000/svg">
<circle cx="3.27551" cy="4.21472" r="3.27526" fill="#5538CE"/>
<circle cx="13.413" cy="4.21472" r="3.27526" fill="#5538CE"/>
<circle cx="23.5509" cy="4.21472" r="3.27526" fill="#5538CE"/>
<circle cx="33.6886" cy="4.21472" r="3.27526" fill="#5538CE"/>
<circle cx="43.8263" cy="4.21472" r="3.27526" fill="#5538CE"/>
<circle cx="53.964" cy="4.21472" r="3.27526" fill="#5538CE"/>
<circle cx="64.1017" cy="4.21472" r="3.27526" fill="#5538CE"/>
<circle cx="74.2394" cy="4.21472" r="3.27526" fill="#5538CE"/>
<circle cx="84.3771" cy="4.21472" r="3.27526" fill="#5538CE"/>
<circle cx="94.515" cy="4.21472" r="3.27526" fill="#5538CE"/>
<circle cx="104.652" cy="4.21472" r="3.27526" fill="#5538CE"/>
<circle cx="114.79" cy="4.21472" r="3.27526" fill="#5538CE"/>
<circle cx="124.928" cy="4.21472" r="3.27526" fill="#5538CE"/>
<circle cx="135.066" cy="4.21472" r="3.27526" fill="#5538CE"/>
<circle cx="145.203" cy="4.21472" r="3.27526" fill="#5538CE"/>
<circle cx="3.27526" cy="13.6766" r="3.27526" fill="#5538CE"/>
<circle cx="3.27526" cy="23.1385" r="3.27526" fill="#5538CE"/>
<circle cx="3.27526" cy="32.5995" r="3.27526" fill="#5538CE"/>
<circle cx="3.27526" cy="42.0624" r="3.27526" fill="#5538CE"/>
<circle cx="3.27526" cy="51.5233" r="3.27526" fill="#5538CE"/>
<circle cx="3.27526" cy="60.9862" r="3.27526" fill="#5538CE"/>
<circle cx="3.27526" cy="70.4471" r="3.27526" fill="#5538CE"/>
<circle cx="3.27526" cy="79.91" r="3.27526" fill="#5538CE"/>
<circle cx="3.27526" cy="89.371" r="3.27526" fill="#5538CE"/>
<circle cx="3.27526" cy="98.8339" r="3.27526" fill="#5538CE"/>
<circle cx="3.27526" cy="108.295" r="3.27526" fill="#5538CE"/>
<circle cx="3.27526" cy="117.758" r="3.27526" fill="#5538CE"/>
<circle cx="13.413" cy="13.6766" r="3.27526" fill="#5538CE"/>
<circle cx="13.413" cy="23.1385" r="3.27526" fill="#5538CE"/>
<circle cx="13.413" cy="32.5995" r="3.27526" fill="#5538CE"/>
<circle cx="13.413" cy="42.0624" r="3.27526" fill="#5538CE"/>
<circle cx="13.413" cy="51.5233" r="3.27526" fill="#5538CE"/>
<circle cx="13.413" cy="60.9862" r="3.27526" fill="#5538CE"/>
<circle cx="13.413" cy="70.4471" r="3.27526" fill="#5538CE"/>
<circle cx="13.413" cy="79.91" r="3.27526" fill="#5538CE"/>
<circle cx="13.413" cy="89.371" r="3.27526" fill="#5538CE"/>
<circle cx="13.413" cy="98.8339" r="3.27526" fill="#5538CE"/>
<circle cx="13.413" cy="108.295" r="3.27526" fill="#5538CE"/>
<circle cx="13.413" cy="117.758" r="3.27526" fill="#5538CE"/>
<circle cx="23.5509" cy="13.6766" r="3.27526" fill="#5538CE"/>
<circle cx="23.5509" cy="23.1385" r="3.27526" fill="#5538CE"/>
<circle cx="23.5509" cy="32.5995" r="3.27526" fill="#5538CE"/>
<circle cx="23.5509" cy="42.0624" r="3.27526" fill="#5538CE"/>
<circle cx="23.5509" cy="51.5233" r="3.27526" fill="#5538CE"/>
<circle cx="23.5509" cy="60.9862" r="3.27526" fill="#5538CE"/>
<circle cx="23.5509" cy="70.4471" r="3.27526" fill="#5538CE"/>
<circle cx="23.5509" cy="79.91" r="3.27526" fill="#5538CE"/>
<circle cx="23.5509" cy="89.371" r="3.27526" fill="#5538CE"/>
<circle cx="23.5509" cy="98.8339" r="3.27526" fill="#5538CE"/>
<circle cx="23.5509" cy="108.295" r="3.27526" fill="#5538CE"/>
<circle cx="23.5509" cy="117.758" r="3.27526" fill="#5538CE"/>
<circle cx="33.6886" cy="13.6766" r="3.27526" fill="#5538CE"/>
<circle cx="33.6886" cy="23.1385" r="3.27526" fill="#5538CE"/>
<circle cx="33.6886" cy="32.5995" r="3.27526" fill="#5538CE"/>
<circle cx="33.6886" cy="42.0624" r="3.27526" fill="#5538CE"/>
<circle cx="33.6886" cy="51.5233" r="3.27526" fill="#5538CE"/>
<circle cx="33.6886" cy="60.9862" r="3.27526" fill="#5538CE"/>
<circle cx="33.6886" cy="70.4471" r="3.27526" fill="#5538CE"/>
<circle cx="33.6886" cy="79.91" r="3.27526" fill="#5538CE"/>
<circle cx="33.6886" cy="89.371" r="3.27526" fill="#5538CE"/>
<circle cx="33.6886" cy="98.8339" r="3.27526" fill="#5538CE"/>
<circle cx="33.6886" cy="108.295" r="3.27526" fill="#5538CE"/>
<circle cx="33.6886" cy="117.758" r="3.27526" fill="#5538CE"/>
<circle cx="43.8263" cy="13.6766" r="3.27526" fill="#5538CE"/>
<circle cx="43.8263" cy="23.1385" r="3.27526" fill="#5538CE"/>
<circle cx="43.8263" cy="32.5995" r="3.27526" fill="#5538CE"/>
<circle cx="43.8263" cy="42.0624" r="3.27526" fill="#5538CE"/>
<circle cx="43.8263" cy="51.5233" r="3.27526" fill="#5538CE"/>
<circle cx="43.8263" cy="60.9862" r="3.27526" fill="#5538CE"/>
<circle cx="43.8263" cy="70.4471" r="3.27526" fill="#5538CE"/>
<circle cx="43.8263" cy="79.91" r="3.27526" fill="#5538CE"/>
<circle cx="43.8263" cy="89.371" r="3.27526" fill="#5538CE"/>
<circle cx="43.8263" cy="98.8339" r="3.27526" fill="#5538CE"/>
<circle cx="43.8263" cy="108.295" r="3.27526" fill="#5538CE"/>
<circle cx="43.8263" cy="117.758" r="3.27526" fill="#5538CE"/>
<circle cx="53.964" cy="13.6766" r="3.27526" fill="#5538CE"/>
<circle cx="53.964" cy="23.1385" r="3.27526" fill="#5538CE"/>
<circle cx="53.964" cy="32.5995" r="3.27526" fill="#5538CE"/>
<circle cx="53.964" cy="42.0624" r="3.27526" fill="#5538CE"/>
<circle cx="53.964" cy="51.5233" r="3.27526" fill="#5538CE"/>
<circle cx="53.964" cy="60.9862" r="3.27526" fill="#5538CE"/>
<circle cx="53.964" cy="70.4471" r="3.27526" fill="#5538CE"/>
<circle cx="53.964" cy="79.91" r="3.27526" fill="#5538CE"/>
<circle cx="53.964" cy="89.371" r="3.27526" fill="#5538CE"/>
<circle cx="53.964" cy="98.8339" r="3.27526" fill="#5538CE"/>
<circle cx="53.964" cy="108.295" r="3.27526" fill="#5538CE"/>
<circle cx="53.964" cy="117.758" r="3.27526" fill="#5538CE"/>
<circle cx="64.1017" cy="13.6766" r="3.27526" fill="#5538CE"/>
<circle cx="64.1017" cy="23.1385" r="3.27526" fill="#5538CE"/>
<circle cx="64.1017" cy="32.5995" r="3.27526" fill="#5538CE"/>
<circle cx="64.1017" cy="42.0624" r="3.27526" fill="#5538CE"/>
<circle cx="64.1017" cy="51.5233" r="3.27526" fill="#5538CE"/>
<circle cx="64.1017" cy="60.9862" r="3.27526" fill="#5538CE"/>
<circle cx="64.1017" cy="70.4471" r="3.27526" fill="#5538CE"/>
<circle cx="64.1017" cy="79.91" r="3.27526" fill="#5538CE"/>
<circle cx="64.1017" cy="89.371" r="3.27526" fill="#5538CE"/>
<circle cx="64.1017" cy="98.8339" r="3.27526" fill="#5538CE"/>
<circle cx="64.1017" cy="108.295" r="3.27526" fill="#5538CE"/>
<circle cx="64.1017" cy="117.758" r="3.27526" fill="#5538CE"/>
<circle cx="74.2394" cy="13.6766" r="3.27526" fill="#5538CE"/>
<circle cx="74.2394" cy="23.1385" r="3.27526" fill="#5538CE"/>
<circle cx="74.2394" cy="32.5995" r="3.27526" fill="#5538CE"/>
<circle cx="74.2394" cy="42.0624" r="3.27526" fill="#5538CE"/>
<circle cx="74.2394" cy="51.5233" r="3.27526" fill="#5538CE"/>
<circle cx="74.2394" cy="60.9862" r="3.27526" fill="#5538CE"/>
<circle cx="74.2394" cy="70.4471" r="3.27526" fill="#5538CE"/>
<circle cx="74.2394" cy="79.91" r="3.27526" fill="#5538CE"/>
<circle cx="74.2394" cy="89.371" r="3.27526" fill="#5538CE"/>
<circle cx="74.2394" cy="98.8339" r="3.27526" fill="#5538CE"/>
<circle cx="74.2394" cy="108.295" r="3.27526" fill="#5538CE"/>
<circle cx="74.2394" cy="117.758" r="3.27526" fill="#5538CE"/>
<circle cx="84.3771" cy="13.6766" r="3.27526" fill="#5538CE"/>
<circle cx="84.3771" cy="23.1385" r="3.27526" fill="#5538CE"/>
<circle cx="84.3771" cy="32.5995" r="3.27526" fill="#5538CE"/>
<circle cx="84.3771" cy="42.0624" r="3.27526" fill="#5538CE"/>
<circle cx="84.3771" cy="51.5233" r="3.27526" fill="#5538CE"/>
<circle cx="84.3771" cy="60.9862" r="3.27526" fill="#5538CE"/>
<circle cx="84.3771" cy="70.4471" r="3.27526" fill="#5538CE"/>
<circle cx="84.3771" cy="79.91" r="3.27526" fill="#5538CE"/>
<circle cx="84.3771" cy="89.371" r="3.27526" fill="#5538CE"/>
<circle cx="84.3771" cy="98.8339" r="3.27526" fill="#5538CE"/>
<circle cx="84.3771" cy="108.295" r="3.27526" fill="#5538CE"/>
<circle cx="84.3771" cy="117.758" r="3.27526" fill="#5538CE"/>
<circle cx="94.515" cy="13.6766" r="3.27526" fill="#5538CE"/>
<circle cx="94.515" cy="23.1385" r="3.27526" fill="#5538CE"/>
<circle cx="94.515" cy="32.5995" r="3.27526" fill="#5538CE"/>
<circle cx="94.515" cy="42.0624" r="3.27526" fill="#5538CE"/>
<circle cx="94.515" cy="51.5233" r="3.27526" fill="#5538CE"/>
<circle cx="94.515" cy="60.9862" r="3.27526" fill="#5538CE"/>
<circle cx="94.515" cy="70.4471" r="3.27526" fill="#5538CE"/>
<circle cx="94.515" cy="79.91" r="3.27526" fill="#5538CE"/>
<circle cx="94.515" cy="89.371" r="3.27526" fill="#5538CE"/>
<circle cx="94.515" cy="98.8339" r="3.27526" fill="#5538CE"/>
<circle cx="94.515" cy="108.295" r="3.27526" fill="#5538CE"/>
<circle cx="94.515" cy="117.758" r="3.27526" fill="#5538CE"/>
<circle cx="104.652" cy="13.6766" r="3.27526" fill="#5538CE"/>
<circle cx="104.652" cy="23.1385" r="3.27526" fill="#5538CE"/>
<circle cx="104.652" cy="32.5995" r="3.27526" fill="#5538CE"/>
<circle cx="104.652" cy="42.0624" r="3.27526" fill="#5538CE"/>
<circle cx="104.652" cy="51.5233" r="3.27526" fill="#5538CE"/>
<circle cx="104.652" cy="60.9862" r="3.27526" fill="#5538CE"/>
<circle cx="104.652" cy="70.4471" r="3.27526" fill="#5538CE"/>
<circle cx="104.652" cy="79.91" r="3.27526" fill="#5538CE"/>
<circle cx="104.652" cy="89.371" r="3.27526" fill="#5538CE"/>
<circle cx="104.652" cy="98.8339" r="3.27526" fill="#5538CE"/>
<circle cx="104.652" cy="108.295" r="3.27526" fill="#5538CE"/>
<circle cx="104.652" cy="117.758" r="3.27526" fill="#5538CE"/>
<circle cx="114.79" cy="13.6766" r="3.27526" fill="#5538CE"/>
<circle cx="114.79" cy="23.1385" r="3.27526" fill="#5538CE"/>
<circle cx="114.79" cy="32.5995" r="3.27526" fill="#5538CE"/>
<circle cx="114.79" cy="42.0624" r="3.27526" fill="#5538CE"/>
<circle cx="114.79" cy="51.5233" r="3.27526" fill="#5538CE"/>
<circle cx="114.79" cy="60.9862" r="3.27526" fill="#5538CE"/>
<circle cx="114.79" cy="70.4471" r="3.27526" fill="#5538CE"/>
<circle cx="114.79" cy="79.91" r="3.27526" fill="#5538CE"/>
<circle cx="114.79" cy="89.371" r="3.27526" fill="#5538CE"/>
<circle cx="114.79" cy="98.8339" r="3.27526" fill="#5538CE"/>
<circle cx="114.79" cy="108.295" r="3.27526" fill="#5538CE"/>
<circle cx="114.79" cy="117.758" r="3.27526" fill="#5538CE"/>
<circle cx="124.928" cy="13.6766" r="3.27526" fill="#5538CE"/>
<circle cx="124.928" cy="23.1385" r="3.27526" fill="#5538CE"/>
<circle cx="124.928" cy="32.5995" r="3.27526" fill="#5538CE"/>
<circle cx="124.928" cy="42.0624" r="3.27526" fill="#5538CE"/>
<circle cx="124.928" cy="51.5233" r="3.27526" fill="#5538CE"/>
<circle cx="124.928" cy="60.9862" r="3.27526" fill="#5538CE"/>
<circle cx="124.928" cy="70.4471" r="3.27526" fill="#5538CE"/>
<circle cx="124.928" cy="79.91" r="3.27526" fill="#5538CE"/>
<circle cx="124.928" cy="89.371" r="3.27526" fill="#5538CE"/>
<circle cx="124.928" cy="98.8339" r="3.27526" fill="#5538CE"/>
<circle cx="124.928" cy="108.295" r="3.27526" fill="#5538CE"/>
<circle cx="124.928" cy="117.758" r="3.27526" fill="#5538CE"/>
<circle cx="135.066" cy="13.6766" r="3.27526" fill="#5538CE"/>
<circle cx="135.066" cy="23.1385" r="3.27526" fill="#5538CE"/>
<circle cx="135.066" cy="32.5995" r="3.27526" fill="#5538CE"/>
<circle cx="135.066" cy="42.0624" r="3.27526" fill="#5538CE"/>
<circle cx="135.066" cy="51.5233" r="3.27526" fill="#5538CE"/>
<circle cx="135.066" cy="60.9862" r="3.27526" fill="#5538CE"/>
<circle cx="135.066" cy="70.4471" r="3.27526" fill="#5538CE"/>
<circle cx="135.066" cy="79.91" r="3.27526" fill="#5538CE"/>
<circle cx="135.066" cy="89.371" r="3.27526" fill="#5538CE"/>
<circle cx="135.066" cy="98.8339" r="3.27526" fill="#5538CE"/>
<circle cx="135.066" cy="108.295" r="3.27526" fill="#5538CE"/>
<circle cx="135.066" cy="117.758" r="3.27526" fill="#5538CE"/>
<circle cx="145.203" cy="13.6766" r="3.27526" fill="#5538CE"/>
<circle cx="145.203" cy="23.1385" r="3.27526" fill="#5538CE"/>
<circle cx="145.203" cy="32.5995" r="3.27526" fill="#5538CE"/>
<circle cx="145.203" cy="42.0624" r="3.27526" fill="#5538CE"/>
<circle cx="145.203" cy="51.5233" r="3.27526" fill="#5538CE"/>
<circle cx="145.203" cy="60.9862" r="3.27526" fill="#5538CE"/>
<circle cx="145.203" cy="70.4471" r="3.27526" fill="#5538CE"/>
<circle cx="145.203" cy="79.91" r="3.27526" fill="#5538CE"/>
<circle cx="145.203" cy="89.371" r="3.27526" fill="#5538CE"/>
<circle cx="145.203" cy="98.8339" r="3.27526" fill="#5538CE"/>
<circle cx="145.203" cy="108.295" r="3.27526" fill="#5538CE"/>
<circle cx="145.203" cy="117.758" r="3.27526" fill="#5538CE"/>
<circle cx="3.27551" cy="127.182" r="3.27526" fill="#5538CE"/>
<circle cx="13.413" cy="127.182" r="3.27526" fill="#5538CE"/>
<circle cx="23.5507" cy="127.182" r="3.27526" fill="#5538CE"/>
<circle cx="33.6886" cy="127.182" r="3.27526" fill="#5538CE"/>
<circle cx="43.826" cy="127.182" r="3.27526" fill="#5538CE"/>
<circle cx="53.964" cy="127.182" r="3.27526" fill="#5538CE"/>
<circle cx="64.1017" cy="127.182" r="3.27526" fill="#5538CE"/>
<circle cx="74.2394" cy="127.182" r="3.27526" fill="#5538CE"/>
<circle cx="84.3771" cy="127.182" r="3.27526" fill="#5538CE"/>
<circle cx="94.515" cy="127.182" r="3.27526" fill="#5538CE"/>
<circle cx="104.652" cy="127.182" r="3.27526" fill="#5538CE"/>
<circle cx="114.79" cy="127.182" r="3.27526" fill="#5538CE"/>
<circle cx="124.928" cy="127.182" r="3.27526" fill="#5538CE"/>
<circle cx="135.066" cy="127.182" r="3.27526" fill="#5538CE"/>
<circle cx="145.203" cy="127.182" r="3.27526" fill="#5538CE"/>
<circle cx="3.27526" cy="136.644" r="3.27526" fill="#5538CE"/>
<circle cx="3.27526" cy="146.106" r="3.27526" fill="#5538CE"/>
<circle cx="3.27526" cy="155.568" r="3.27526" fill="#5538CE"/>
<circle cx="3.27526" cy="165.03" r="3.27526" fill="#5538CE"/>
<circle cx="3.27526" cy="174.492" r="3.27526" fill="#5538CE"/>
<circle cx="3.27526" cy="183.954" r="3.27526" fill="#5538CE"/>
<circle cx="3.27526" cy="193.415" r="3.27526" fill="#5538CE"/>
<circle cx="3.27526" cy="202.878" r="3.27526" fill="#5538CE"/>
<circle cx="3.27526" cy="212.339" r="3.27526" fill="#5538CE"/>
<circle cx="3.27526" cy="221.802" r="3.27526" fill="#5538CE"/>
<circle cx="3.27526" cy="231.264" r="3.27526" fill="#5538CE"/>
<circle cx="3.27526" cy="240.725" r="3.27526" fill="#5538CE"/>
<circle cx="13.413" cy="136.644" r="3.27526" fill="#5538CE"/>
<circle cx="13.413" cy="146.106" r="3.27526" fill="#5538CE"/>
<circle cx="13.413" cy="155.568" r="3.27526" fill="#5538CE"/>
<circle cx="13.413" cy="165.03" r="3.27526" fill="#5538CE"/>
<circle cx="13.413" cy="174.492" r="3.27526" fill="#5538CE"/>
<circle cx="13.413" cy="183.954" r="3.27526" fill="#5538CE"/>
<circle cx="13.413" cy="193.415" r="3.27526" fill="#5538CE"/>
<circle cx="13.413" cy="202.878" r="3.27526" fill="#5538CE"/>
<circle cx="13.413" cy="212.339" r="3.27526" fill="#5538CE"/>
<circle cx="13.413" cy="221.802" r="3.27526" fill="#5538CE"/>
<circle cx="13.413" cy="231.264" r="3.27526" fill="#5538CE"/>
<circle cx="13.413" cy="240.725" r="3.27526" fill="#5538CE"/>
<circle cx="23.5507" cy="136.644" r="3.27526" fill="#5538CE"/>
<circle cx="23.5507" cy="146.106" r="3.27526" fill="#5538CE"/>
<circle cx="23.5507" cy="155.568" r="3.27526" fill="#5538CE"/>
<circle cx="23.5507" cy="165.03" r="3.27526" fill="#5538CE"/>
<circle cx="23.5507" cy="174.492" r="3.27526" fill="#5538CE"/>
<circle cx="23.5507" cy="183.954" r="3.27526" fill="#5538CE"/>
<circle cx="23.5507" cy="193.415" r="3.27526" fill="#5538CE"/>
<circle cx="23.5507" cy="202.878" r="3.27526" fill="#5538CE"/>
<circle cx="23.5507" cy="212.339" r="3.27526" fill="#5538CE"/>
<circle cx="23.5507" cy="221.802" r="3.27526" fill="#5538CE"/>
<circle cx="23.5507" cy="231.264" r="3.27526" fill="#5538CE"/>
<circle cx="23.5507" cy="240.725" r="3.27526" fill="#5538CE"/>
<circle cx="33.6886" cy="136.644" r="3.27526" fill="#5538CE"/>
<circle cx="33.6886" cy="146.106" r="3.27526" fill="#5538CE"/>
<circle cx="33.6886" cy="155.568" r="3.27526" fill="#5538CE"/>
<circle cx="33.6886" cy="165.03" r="3.27526" fill="#5538CE"/>
<circle cx="33.6886" cy="174.492" r="3.27526" fill="#5538CE"/>
<circle cx="33.6886" cy="183.954" r="3.27526" fill="#5538CE"/>
<circle cx="33.6886" cy="193.415" r="3.27526" fill="#5538CE"/>
<circle cx="33.6886" cy="202.878" r="3.27526" fill="#5538CE"/>
<circle cx="33.6886" cy="212.339" r="3.27526" fill="#5538CE"/>
<circle cx="33.6886" cy="221.802" r="3.27526" fill="#5538CE"/>
<circle cx="33.6886" cy="231.264" r="3.27526" fill="#5538CE"/>
<circle cx="33.6886" cy="240.725" r="3.27526" fill="#5538CE"/>
<circle cx="43.826" cy="136.644" r="3.27526" fill="#5538CE"/>
<circle cx="43.826" cy="146.106" r="3.27526" fill="#5538CE"/>
<circle cx="43.826" cy="155.568" r="3.27526" fill="#5538CE"/>
<circle cx="43.826" cy="165.03" r="3.27526" fill="#5538CE"/>
<circle cx="43.826" cy="174.492" r="3.27526" fill="#5538CE"/>
<circle cx="43.826" cy="183.954" r="3.27526" fill="#5538CE"/>
<circle cx="43.826" cy="193.415" r="3.27526" fill="#5538CE"/>
<circle cx="43.826" cy="202.878" r="3.27526" fill="#5538CE"/>
<circle cx="43.826" cy="212.339" r="3.27526" fill="#5538CE"/>
<circle cx="43.826" cy="221.802" r="3.27526" fill="#5538CE"/>
<circle cx="43.826" cy="231.264" r="3.27526" fill="#5538CE"/>
<circle cx="43.826" cy="240.725" r="3.27526" fill="#5538CE"/>
<circle cx="53.964" cy="136.644" r="3.27526" fill="#5538CE"/>
<circle cx="53.964" cy="146.106" r="3.27526" fill="#5538CE"/>
<circle cx="53.964" cy="155.568" r="3.27526" fill="#5538CE"/>
<circle cx="53.964" cy="165.03" r="3.27526" fill="#5538CE"/>
<circle cx="53.964" cy="174.492" r="3.27526" fill="#5538CE"/>
<circle cx="53.964" cy="183.954" r="3.27526" fill="#5538CE"/>
<circle cx="53.964" cy="193.415" r="3.27526" fill="#5538CE"/>
<circle cx="53.964" cy="202.878" r="3.27526" fill="#5538CE"/>
<circle cx="53.964" cy="212.339" r="3.27526" fill="#5538CE"/>
<circle cx="53.964" cy="221.802" r="3.27526" fill="#5538CE"/>
<circle cx="53.964" cy="231.264" r="3.27526" fill="#5538CE"/>
<circle cx="53.964" cy="240.725" r="3.27526" fill="#5538CE"/>
<circle cx="64.1017" cy="136.644" r="3.27526" fill="#5538CE"/>
<circle cx="64.1017" cy="146.106" r="3.27526" fill="#5538CE"/>
<circle cx="64.1017" cy="155.568" r="3.27526" fill="#5538CE"/>
<circle cx="64.1017" cy="165.03" r="3.27526" fill="#5538CE"/>
<circle cx="64.1017" cy="174.492" r="3.27526" fill="#5538CE"/>
<circle cx="64.1017" cy="183.954" r="3.27526" fill="#5538CE"/>
<circle cx="64.1017" cy="193.415" r="3.27526" fill="#5538CE"/>
<circle cx="64.1017" cy="202.878" r="3.27526" fill="#5538CE"/>
<circle cx="64.1017" cy="212.339" r="3.27526" fill="#5538CE"/>
<circle cx="64.1017" cy="221.802" r="3.27526" fill="#5538CE"/>
<circle cx="64.1017" cy="231.264" r="3.27526" fill="#5538CE"/>
<circle cx="64.1017" cy="240.725" r="3.27526" fill="#5538CE"/>
<circle cx="74.2394" cy="136.644" r="3.27526" fill="#5538CE"/>
<circle cx="74.2394" cy="146.106" r="3.27526" fill="#5538CE"/>
<circle cx="74.2394" cy="155.568" r="3.27526" fill="#5538CE"/>
<circle cx="74.2394" cy="165.03" r="3.27526" fill="#5538CE"/>
<circle cx="74.2394" cy="174.492" r="3.27526" fill="#5538CE"/>
<circle cx="74.2394" cy="183.954" r="3.27526" fill="#5538CE"/>
<circle cx="74.2394" cy="193.415" r="3.27526" fill="#5538CE"/>
<circle cx="74.2394" cy="202.878" r="3.27526" fill="#5538CE"/>
<circle cx="74.2394" cy="212.339" r="3.27526" fill="#5538CE"/>
<circle cx="74.2394" cy="221.802" r="3.27526" fill="#5538CE"/>
<circle cx="74.2394" cy="231.264" r="3.27526" fill="#5538CE"/>
<circle cx="74.2394" cy="240.725" r="3.27526" fill="#5538CE"/>
<circle cx="84.3771" cy="136.644" r="3.27526" fill="#5538CE"/>
<circle cx="84.3771" cy="146.106" r="3.27526" fill="#5538CE"/>
<circle cx="84.3771" cy="155.568" r="3.27526" fill="#5538CE"/>
<circle cx="84.3771" cy="165.03" r="3.27526" fill="#5538CE"/>
<circle cx="84.3771" cy="174.492" r="3.27526" fill="#5538CE"/>
<circle cx="84.3771" cy="183.954" r="3.27526" fill="#5538CE"/>
<circle cx="84.3771" cy="193.415" r="3.27526" fill="#5538CE"/>
<circle cx="84.3771" cy="202.878" r="3.27526" fill="#5538CE"/>
<circle cx="84.3771" cy="212.339" r="3.27526" fill="#5538CE"/>
<circle cx="84.3771" cy="221.802" r="3.27526" fill="#5538CE"/>
<circle cx="84.3771" cy="231.264" r="3.27526" fill="#5538CE"/>
<circle cx="84.3771" cy="240.725" r="3.27526" fill="#5538CE"/>
<circle cx="94.515" cy="136.644" r="3.27526" fill="#5538CE"/>
<circle cx="94.515" cy="146.106" r="3.27526" fill="#5538CE"/>
<circle cx="94.515" cy="155.568" r="3.27526" fill="#5538CE"/>
<circle cx="94.515" cy="165.03" r="3.27526" fill="#5538CE"/>
<circle cx="94.515" cy="174.492" r="3.27526" fill="#5538CE"/>
<circle cx="94.515" cy="183.954" r="3.27526" fill="#5538CE"/>
<circle cx="94.515" cy="193.415" r="3.27526" fill="#5538CE"/>
<circle cx="94.515" cy="202.878" r="3.27526" fill="#5538CE"/>
<circle cx="94.515" cy="212.339" r="3.27526" fill="#5538CE"/>
<circle cx="94.515" cy="221.802" r="3.27526" fill="#5538CE"/>
<circle cx="94.515" cy="231.264" r="3.27526" fill="#5538CE"/>
<circle cx="94.515" cy="240.725" r="3.27526" fill="#5538CE"/>
<circle cx="104.652" cy="136.644" r="3.27526" fill="#5538CE"/>
<circle cx="104.652" cy="146.106" r="3.27526" fill="#5538CE"/>
<circle cx="104.652" cy="155.568" r="3.27526" fill="#5538CE"/>
<circle cx="104.652" cy="165.03" r="3.27526" fill="#5538CE"/>
<circle cx="104.652" cy="174.492" r="3.27526" fill="#5538CE"/>
<circle cx="104.652" cy="183.954" r="3.27526" fill="#5538CE"/>
<circle cx="104.652" cy="193.415" r="3.27526" fill="#5538CE"/>
<circle cx="104.652" cy="202.878" r="3.27526" fill="#5538CE"/>
<circle cx="104.652" cy="212.339" r="3.27526" fill="#5538CE"/>
<circle cx="104.652" cy="221.802" r="3.27526" fill="#5538CE"/>
<circle cx="104.652" cy="231.264" r="3.27526" fill="#5538CE"/>
<circle cx="104.652" cy="240.725" r="3.27526" fill="#5538CE"/>
<circle cx="114.79" cy="136.644" r="3.27526" fill="#5538CE"/>
<circle cx="114.79" cy="146.106" r="3.27526" fill="#5538CE"/>
<circle cx="114.79" cy="155.568" r="3.27526" fill="#5538CE"/>
<circle cx="114.79" cy="165.03" r="3.27526" fill="#5538CE"/>
<circle cx="114.79" cy="174.492" r="3.27526" fill="#5538CE"/>
<circle cx="114.79" cy="183.954" r="3.27526" fill="#5538CE"/>
<circle cx="114.79" cy="193.415" r="3.27526" fill="#5538CE"/>
<circle cx="114.79" cy="202.878" r="3.27526" fill="#5538CE"/>
<circle cx="114.79" cy="212.339" r="3.27526" fill="#5538CE"/>
<circle cx="114.79" cy="221.802" r="3.27526" fill="#5538CE"/>
<circle cx="114.79" cy="231.264" r="3.27526" fill="#5538CE"/>
<circle cx="114.79" cy="240.725" r="3.27526" fill="#5538CE"/>
<circle cx="124.928" cy="136.644" r="3.27526" fill="#5538CE"/>
<circle cx="124.928" cy="146.106" r="3.27526" fill="#5538CE"/>
<circle cx="124.928" cy="155.568" r="3.27526" fill="#5538CE"/>
<circle cx="124.928" cy="165.03" r="3.27526" fill="#5538CE"/>
<circle cx="124.928" cy="174.492" r="3.27526" fill="#5538CE"/>
<circle cx="124.928" cy="183.954" r="3.27526" fill="#5538CE"/>
<circle cx="124.928" cy="193.415" r="3.27526" fill="#5538CE"/>
<circle cx="124.928" cy="202.878" r="3.27526" fill="#5538CE"/>
<circle cx="124.928" cy="212.339" r="3.27526" fill="#5538CE"/>
<circle cx="124.928" cy="221.802" r="3.27526" fill="#5538CE"/>
<circle cx="124.928" cy="231.264" r="3.27526" fill="#5538CE"/>
<circle cx="124.928" cy="240.725" r="3.27526" fill="#5538CE"/>
<circle cx="135.066" cy="136.644" r="3.27526" fill="#5538CE"/>
<circle cx="135.066" cy="146.106" r="3.27526" fill="#5538CE"/>
<circle cx="135.066" cy="155.568" r="3.27526" fill="#5538CE"/>
<circle cx="135.066" cy="165.03" r="3.27526" fill="#5538CE"/>
<circle cx="135.066" cy="174.492" r="3.27526" fill="#5538CE"/>
<circle cx="135.066" cy="183.954" r="3.27526" fill="#5538CE"/>
<circle cx="135.066" cy="193.415" r="3.27526" fill="#5538CE"/>
<circle cx="135.066" cy="202.878" r="3.27526" fill="#5538CE"/>
<circle cx="135.066" cy="212.339" r="3.27526" fill="#5538CE"/>
<circle cx="135.066" cy="221.802" r="3.27526" fill="#5538CE"/>
<circle cx="135.066" cy="231.264" r="3.27526" fill="#5538CE"/>
<circle cx="135.066" cy="240.725" r="3.27526" fill="#5538CE"/>
<circle cx="145.203" cy="136.644" r="3.27526" fill="#5538CE"/>
<circle cx="145.203" cy="146.106" r="3.27526" fill="#5538CE"/>
<circle cx="145.203" cy="155.568" r="3.27526" fill="#5538CE"/>
<circle cx="145.203" cy="165.03" r="3.27526" fill="#5538CE"/>
<circle cx="145.203" cy="174.492" r="3.27526" fill="#5538CE"/>
<circle cx="145.203" cy="183.954" r="3.27526" fill="#5538CE"/>
<circle cx="145.203" cy="193.415" r="3.27526" fill="#5538CE"/>
<circle cx="145.203" cy="202.878" r="3.27526" fill="#5538CE"/>
<circle cx="145.203" cy="212.339" r="3.27526" fill="#5538CE"/>
<circle cx="145.203" cy="221.802" r="3.27526" fill="#5538CE"/>
<circle cx="145.203" cy="231.264" r="3.27526" fill="#5538CE"/>
<circle cx="145.203" cy="240.725" r="3.27526" fill="#5538CE"/>
<circle cx="154.797" cy="4.21472" r="3.27526" fill="#5538CE"/>
<circle cx="164.935" cy="4.21472" r="3.27526" fill="#5538CE"/>
<circle cx="175.072" cy="4.21472" r="3.27526" fill="#5538CE"/>
<circle cx="185.21" cy="4.21472" r="3.27526" fill="#5538CE"/>
<circle cx="195.348" cy="4.21472" r="3.27526" fill="#5538CE"/>
<circle cx="205.485" cy="4.21472" r="3.27526" fill="#5538CE"/>
<circle cx="215.623" cy="4.21472" r="3.27526" fill="#5538CE"/>
<circle cx="225.761" cy="4.21472" r="3.27526" fill="#5538CE"/>
<circle cx="235.899" cy="4.21472" r="3.27526" fill="#5538CE"/>
<circle cx="246.036" cy="4.21472" r="3.27526" fill="#5538CE"/>
<circle cx="256.174" cy="4.21472" r="3.27526" fill="#5538CE"/>
<circle cx="266.312" cy="4.21472" r="3.27526" fill="#5538CE"/>
<circle cx="276.449" cy="4.21472" r="3.27526" fill="#5538CE"/>
<circle cx="286.587" cy="4.21472" r="3.27526" fill="#5538CE"/>
<circle cx="296.725" cy="4.21472" r="3.27526" fill="#5538CE"/>
<circle cx="154.797" cy="13.6766" r="3.27526" fill="#5538CE"/>
<circle cx="154.797" cy="23.1385" r="3.27526" fill="#5538CE"/>
<circle cx="154.797" cy="32.5995" r="3.27526" fill="#5538CE"/>
<circle cx="154.797" cy="42.0624" r="3.27526" fill="#5538CE"/>
<circle cx="154.797" cy="51.5233" r="3.27526" fill="#5538CE"/>
<circle cx="154.797" cy="60.9862" r="3.27526" fill="#5538CE"/>
<circle cx="154.797" cy="70.4471" r="3.27526" fill="#5538CE"/>
<circle cx="154.797" cy="79.91" r="3.27526" fill="#5538CE"/>
<circle cx="154.797" cy="89.371" r="3.27526" fill="#5538CE"/>
<circle cx="154.797" cy="98.8339" r="3.27526" fill="#5538CE"/>
<circle cx="154.797" cy="108.295" r="3.27526" fill="#5538CE"/>
<circle cx="154.797" cy="117.758" r="3.27526" fill="#5538CE"/>
<circle cx="164.935" cy="13.6766" r="3.27526" fill="#5538CE"/>
<circle cx="164.935" cy="23.1385" r="3.27526" fill="#5538CE"/>
<circle cx="164.935" cy="32.5995" r="3.27526" fill="#5538CE"/>
<circle cx="164.935" cy="42.0624" r="3.27526" fill="#5538CE"/>
<circle cx="164.935" cy="51.5233" r="3.27526" fill="#5538CE"/>
<circle cx="164.935" cy="60.9862" r="3.27526" fill="#5538CE"/>
<circle cx="164.935" cy="70.4471" r="3.27526" fill="#5538CE"/>
<circle cx="164.935" cy="79.91" r="3.27526" fill="#5538CE"/>
<circle cx="164.935" cy="89.371" r="3.27526" fill="#5538CE"/>
<circle cx="164.935" cy="98.8339" r="3.27526" fill="#5538CE"/>
<circle cx="164.935" cy="108.295" r="3.27526" fill="#5538CE"/>
<circle cx="164.935" cy="117.758" r="3.27526" fill="#5538CE"/>
<circle cx="175.072" cy="13.6766" r="3.27526" fill="#5538CE"/>
<circle cx="175.072" cy="23.1385" r="3.27526" fill="#5538CE"/>
<circle cx="175.072" cy="32.5995" r="3.27526" fill="#5538CE"/>
<circle cx="175.072" cy="42.0624" r="3.27526" fill="#5538CE"/>
<circle cx="175.072" cy="51.5233" r="3.27526" fill="#5538CE"/>
<circle cx="175.072" cy="60.9862" r="3.27526" fill="#5538CE"/>
<circle cx="175.072" cy="70.4471" r="3.27526" fill="#5538CE"/>
<circle cx="175.072" cy="79.91" r="3.27526" fill="#5538CE"/>
<circle cx="175.072" cy="89.371" r="3.27526" fill="#5538CE"/>
<circle cx="175.072" cy="98.8339" r="3.27526" fill="#5538CE"/>
<circle cx="175.072" cy="108.295" r="3.27526" fill="#5538CE"/>
<circle cx="175.072" cy="117.758" r="3.27526" fill="#5538CE"/>
<circle cx="185.21" cy="13.6766" r="3.27526" fill="#5538CE"/>
<circle cx="185.21" cy="23.1385" r="3.27526" fill="#5538CE"/>
<circle cx="185.21" cy="32.5995" r="3.27526" fill="#5538CE"/>
<circle cx="185.21" cy="42.0624" r="3.27526" fill="#5538CE"/>
<circle cx="185.21" cy="51.5233" r="3.27526" fill="#5538CE"/>
<circle cx="185.21" cy="60.9862" r="3.27526" fill="#5538CE"/>
<circle cx="185.21" cy="70.4471" r="3.27526" fill="#5538CE"/>
<circle cx="185.21" cy="79.91" r="3.27526" fill="#5538CE"/>
<circle cx="185.21" cy="89.371" r="3.27526" fill="#5538CE"/>
<circle cx="185.21" cy="98.8339" r="3.27526" fill="#5538CE"/>
<circle cx="185.21" cy="108.295" r="3.27526" fill="#5538CE"/>
<circle cx="185.21" cy="117.758" r="3.27526" fill="#5538CE"/>
<circle cx="195.348" cy="13.6766" r="3.27526" fill="#5538CE"/>
<circle cx="195.348" cy="23.1385" r="3.27526" fill="#5538CE"/>
<circle cx="195.348" cy="32.5995" r="3.27526" fill="#5538CE"/>
<circle cx="195.348" cy="42.0624" r="3.27526" fill="#5538CE"/>
<circle cx="195.348" cy="51.5233" r="3.27526" fill="#5538CE"/>
<circle cx="195.348" cy="60.9862" r="3.27526" fill="#5538CE"/>
<circle cx="195.348" cy="70.4471" r="3.27526" fill="#5538CE"/>
<circle cx="195.348" cy="79.91" r="3.27526" fill="#5538CE"/>
<circle cx="195.348" cy="89.371" r="3.27526" fill="#5538CE"/>
<circle cx="195.348" cy="98.8339" r="3.27526" fill="#5538CE"/>
<circle cx="195.348" cy="108.295" r="3.27526" fill="#5538CE"/>
<circle cx="195.348" cy="117.758" r="3.27526" fill="#5538CE"/>
<circle cx="205.485" cy="13.6766" r="3.27526" fill="#5538CE"/>
<circle cx="205.485" cy="23.1385" r="3.27526" fill="#5538CE"/>
<circle cx="205.485" cy="32.5995" r="3.27526" fill="#5538CE"/>
<circle cx="205.485" cy="42.0624" r="3.27526" fill="#5538CE"/>
<circle cx="205.485" cy="51.5233" r="3.27526" fill="#5538CE"/>
<circle cx="205.485" cy="60.9862" r="3.27526" fill="#5538CE"/>
<circle cx="205.485" cy="70.4471" r="3.27526" fill="#5538CE"/>
<circle cx="205.485" cy="79.91" r="3.27526" fill="#5538CE"/>
<circle cx="205.485" cy="89.371" r="3.27526" fill="#5538CE"/>
<circle cx="205.485" cy="98.8339" r="3.27526" fill="#5538CE"/>
<circle cx="205.485" cy="108.295" r="3.27526" fill="#5538CE"/>
<circle cx="205.485" cy="117.758" r="3.27526" fill="#5538CE"/>
<circle cx="215.623" cy="13.6766" r="3.27526" fill="#5538CE"/>
<circle cx="215.623" cy="23.1385" r="3.27526" fill="#5538CE"/>
<circle cx="215.623" cy="32.5995" r="3.27526" fill="#5538CE"/>
<circle cx="215.623" cy="42.0624" r="3.27526" fill="#5538CE"/>
<circle cx="215.623" cy="51.5233" r="3.27526" fill="#5538CE"/>
<circle cx="215.623" cy="60.9862" r="3.27526" fill="#5538CE"/>
<circle cx="215.623" cy="70.4471" r="3.27526" fill="#5538CE"/>
<circle cx="215.623" cy="79.91" r="3.27526" fill="#5538CE"/>
<circle cx="215.623" cy="89.371" r="3.27526" fill="#5538CE"/>
<circle cx="215.623" cy="98.8339" r="3.27526" fill="#5538CE"/>
<circle cx="215.623" cy="108.295" r="3.27526" fill="#5538CE"/>
<circle cx="215.623" cy="117.758" r="3.27526" fill="#5538CE"/>
<circle cx="225.761" cy="13.6766" r="3.27526" fill="#5538CE"/>
<circle cx="225.761" cy="23.1385" r="3.27526" fill="#5538CE"/>
<circle cx="225.761" cy="32.5995" r="3.27526" fill="#5538CE"/>
<circle cx="225.761" cy="42.0624" r="3.27526" fill="#5538CE"/>
<circle cx="225.761" cy="51.5233" r="3.27526" fill="#5538CE"/>
<circle cx="225.761" cy="60.9862" r="3.27526" fill="#5538CE"/>
<circle cx="225.761" cy="70.4471" r="3.27526" fill="#5538CE"/>
<circle cx="225.761" cy="79.91" r="3.27526" fill="#5538CE"/>
<circle cx="225.761" cy="89.371" r="3.27526" fill="#5538CE"/>
<circle cx="225.761" cy="98.8339" r="3.27526" fill="#5538CE"/>
<circle cx="225.761" cy="108.295" r="3.27526" fill="#5538CE"/>
<circle cx="225.761" cy="117.758" r="3.27526" fill="#5538CE"/>
<circle cx="235.899" cy="13.6766" r="3.27526" fill="#5538CE"/>
<circle cx="235.899" cy="23.1385" r="3.27526" fill="#5538CE"/>
<circle cx="235.899" cy="32.5995" r="3.27526" fill="#5538CE"/>
<circle cx="235.899" cy="42.0624" r="3.27526" fill="#5538CE"/>
<circle cx="235.899" cy="51.5233" r="3.27526" fill="#5538CE"/>
<circle cx="235.899" cy="60.9862" r="3.27526" fill="#5538CE"/>
<circle cx="235.899" cy="70.4471" r="3.27526" fill="#5538CE"/>
<circle cx="235.899" cy="79.91" r="3.27526" fill="#5538CE"/>
<circle cx="235.899" cy="89.371" r="3.27526" fill="#5538CE"/>
<circle cx="235.899" cy="98.8339" r="3.27526" fill="#5538CE"/>
<circle cx="235.899" cy="108.295" r="3.27526" fill="#5538CE"/>
<circle cx="235.899" cy="117.758" r="3.27526" fill="#5538CE"/>
<circle cx="246.036" cy="13.6766" r="3.27526" fill="#5538CE"/>
<circle cx="246.036" cy="23.1385" r="3.27526" fill="#5538CE"/>
<circle cx="246.036" cy="32.5995" r="3.27526" fill="#5538CE"/>
<circle cx="246.036" cy="42.0624" r="3.27526" fill="#5538CE"/>
<circle cx="246.036" cy="51.5233" r="3.27526" fill="#5538CE"/>
<circle cx="246.036" cy="60.9862" r="3.27526" fill="#5538CE"/>
<circle cx="246.036" cy="70.4471" r="3.27526" fill="#5538CE"/>
<circle cx="246.036" cy="79.91" r="3.27526" fill="#5538CE"/>
<circle cx="246.036" cy="89.371" r="3.27526" fill="#5538CE"/>
<circle cx="246.036" cy="98.8339" r="3.27526" fill="#5538CE"/>
<circle cx="246.036" cy="108.295" r="3.27526" fill="#5538CE"/>
<circle cx="246.036" cy="117.758" r="3.27526" fill="#5538CE"/>
<circle cx="256.174" cy="13.6766" r="3.27526" fill="#5538CE"/>
<circle cx="256.174" cy="23.1385" r="3.27526" fill="#5538CE"/>
<circle cx="256.174" cy="32.5995" r="3.27526" fill="#5538CE"/>
<circle cx="256.174" cy="42.0624" r="3.27526" fill="#5538CE"/>
<circle cx="256.174" cy="51.5233" r="3.27526" fill="#5538CE"/>
<circle cx="256.174" cy="60.9862" r="3.27526" fill="#5538CE"/>
<circle cx="256.174" cy="70.4471" r="3.27526" fill="#5538CE"/>
<circle cx="256.174" cy="79.91" r="3.27526" fill="#5538CE"/>
<circle cx="256.174" cy="89.371" r="3.27526" fill="#5538CE"/>
<circle cx="256.174" cy="98.8339" r="3.27526" fill="#5538CE"/>
<circle cx="256.174" cy="108.295" r="3.27526" fill="#5538CE"/>
<circle cx="256.174" cy="117.758" r="3.27526" fill="#5538CE"/>
<circle cx="266.312" cy="13.6766" r="3.27526" fill="#5538CE"/>
<circle cx="266.312" cy="23.1385" r="3.27526" fill="#5538CE"/>
<circle cx="266.312" cy="32.5995" r="3.27526" fill="#5538CE"/>
<circle cx="266.312" cy="42.0624" r="3.27526" fill="#5538CE"/>
<circle cx="266.312" cy="51.5233" r="3.27526" fill="#5538CE"/>
<circle cx="266.312" cy="60.9862" r="3.27526" fill="#5538CE"/>
<circle cx="266.312" cy="70.4471" r="3.27526" fill="#5538CE"/>
<circle cx="266.312" cy="79.91" r="3.27526" fill="#5538CE"/>
<circle cx="266.312" cy="89.371" r="3.27526" fill="#5538CE"/>
<circle cx="266.312" cy="98.8339" r="3.27526" fill="#5538CE"/>
<circle cx="266.312" cy="108.295" r="3.27526" fill="#5538CE"/>
<circle cx="266.312" cy="117.758" r="3.27526" fill="#5538CE"/>
<circle cx="276.449" cy="13.6766" r="3.27526" fill="#5538CE"/>
<circle cx="276.449" cy="23.1385" r="3.27526" fill="#5538CE"/>
<circle cx="276.449" cy="32.5995" r="3.27526" fill="#5538CE"/>
<circle cx="276.449" cy="42.0624" r="3.27526" fill="#5538CE"/>
<circle cx="276.449" cy="51.5233" r="3.27526" fill="#5538CE"/>
<circle cx="276.449" cy="60.9862" r="3.27526" fill="#5538CE"/>
<circle cx="276.449" cy="70.4471" r="3.27526" fill="#5538CE"/>
<circle cx="276.449" cy="79.91" r="3.27526" fill="#5538CE"/>
<circle cx="276.449" cy="89.371" r="3.27526" fill="#5538CE"/>
<circle cx="276.449" cy="98.8339" r="3.27526" fill="#5538CE"/>
<circle cx="276.449" cy="108.295" r="3.27526" fill="#5538CE"/>
<circle cx="276.449" cy="117.758" r="3.27526" fill="#5538CE"/>
<circle cx="286.587" cy="13.6766" r="3.27526" fill="#5538CE"/>
<circle cx="286.587" cy="23.1385" r="3.27526" fill="#5538CE"/>
<circle cx="286.587" cy="32.5995" r="3.27526" fill="#5538CE"/>
<circle cx="286.587" cy="42.0624" r="3.27526" fill="#5538CE"/>
<circle cx="286.587" cy="51.5233" r="3.27526" fill="#5538CE"/>
<circle cx="286.587" cy="60.9862" r="3.27526" fill="#5538CE"/>
<circle cx="286.587" cy="70.4471" r="3.27526" fill="#5538CE"/>
<circle cx="286.587" cy="79.91" r="3.27526" fill="#5538CE"/>
<circle cx="286.587" cy="89.371" r="3.27526" fill="#5538CE"/>
<circle cx="286.587" cy="98.8339" r="3.27526" fill="#5538CE"/>
<circle cx="286.587" cy="108.295" r="3.27526" fill="#5538CE"/>
<circle cx="286.587" cy="117.758" r="3.27526" fill="#5538CE"/>
<circle cx="296.725" cy="13.6766" r="3.27526" fill="#5538CE"/>
<circle cx="296.725" cy="23.1385" r="3.27526" fill="#5538CE"/>
<circle cx="296.725" cy="32.5995" r="3.27526" fill="#5538CE"/>
<circle cx="296.725" cy="42.0624" r="3.27526" fill="#5538CE"/>
<circle cx="296.725" cy="51.5233" r="3.27526" fill="#5538CE"/>
<circle cx="296.725" cy="60.9862" r="3.27526" fill="#5538CE"/>
<circle cx="296.725" cy="70.4471" r="3.27526" fill="#5538CE"/>
<circle cx="296.725" cy="79.91" r="3.27526" fill="#5538CE"/>
<circle cx="296.725" cy="89.371" r="3.27526" fill="#5538CE"/>
<circle cx="296.725" cy="98.8339" r="3.27526" fill="#5538CE"/>
<circle cx="296.725" cy="108.295" r="3.27526" fill="#5538CE"/>
<circle cx="296.725" cy="117.758" r="3.27526" fill="#5538CE"/>
<circle cx="154.797" cy="127.182" r="3.27526" fill="#5538CE"/>
<circle cx="164.935" cy="127.182" r="3.27526" fill="#5538CE"/>
<circle cx="175.072" cy="127.182" r="3.27526" fill="#5538CE"/>
<circle cx="185.21" cy="127.182" r="3.27526" fill="#5538CE"/>
<circle cx="195.348" cy="127.182" r="3.27526" fill="#5538CE"/>
<circle cx="205.485" cy="127.182" r="3.27526" fill="#5538CE"/>
<circle cx="215.623" cy="127.182" r="3.27526" fill="#5538CE"/>
<circle cx="225.761" cy="127.182" r="3.27526" fill="#5538CE"/>
<circle cx="235.899" cy="127.182" r="3.27526" fill="#5538CE"/>
<circle cx="246.036" cy="127.182" r="3.27526" fill="#5538CE"/>
<circle cx="256.174" cy="127.182" r="3.27526" fill="#5538CE"/>
<circle cx="266.312" cy="127.182" r="3.27526" fill="#5538CE"/>
<circle cx="276.449" cy="127.182" r="3.27526" fill="#5538CE"/>
<circle cx="286.587" cy="127.182" r="3.27526" fill="#5538CE"/>
<circle cx="296.725" cy="127.182" r="3.27526" fill="#5538CE"/>
<circle cx="154.797" cy="136.644" r="3.27526" fill="#5538CE"/>
<circle cx="154.797" cy="146.106" r="3.27526" fill="#5538CE"/>
<circle cx="154.797" cy="155.568" r="3.27526" fill="#5538CE"/>
<circle cx="154.797" cy="165.03" r="3.27526" fill="#5538CE"/>
<circle cx="154.797" cy="174.492" r="3.27526" fill="#5538CE"/>
<circle cx="154.797" cy="183.954" r="3.27526" fill="#5538CE"/>
<circle cx="154.797" cy="193.415" r="3.27526" fill="#5538CE"/>
<circle cx="154.797" cy="202.878" r="3.27526" fill="#5538CE"/>
<circle cx="154.797" cy="212.339" r="3.27526" fill="#5538CE"/>
<circle cx="154.797" cy="221.802" r="3.27526" fill="#5538CE"/>
<circle cx="154.797" cy="231.264" r="3.27526" fill="#5538CE"/>
<circle cx="154.797" cy="240.725" r="3.27526" fill="#5538CE"/>
<circle cx="164.935" cy="136.644" r="3.27526" fill="#5538CE"/>
<circle cx="164.935" cy="146.106" r="3.27526" fill="#5538CE"/>
<circle cx="164.935" cy="155.568" r="3.27526" fill="#5538CE"/>
<circle cx="164.935" cy="165.03" r="3.27526" fill="#5538CE"/>
<circle cx="164.935" cy="174.492" r="3.27526" fill="#5538CE"/>
<circle cx="164.935" cy="183.954" r="3.27526" fill="#5538CE"/>
<circle cx="164.935" cy="193.415" r="3.27526" fill="#5538CE"/>
<circle cx="164.935" cy="202.878" r="3.27526" fill="#5538CE"/>
<circle cx="164.935" cy="212.339" r="3.27526" fill="#5538CE"/>
<circle cx="164.935" cy="221.802" r="3.27526" fill="#5538CE"/>
<circle cx="164.935" cy="231.264" r="3.27526" fill="#5538CE"/>
<circle cx="164.935" cy="240.725" r="3.27526" fill="#5538CE"/>
<circle cx="175.072" cy="136.644" r="3.27526" fill="#5538CE"/>
<circle cx="175.072" cy="146.106" r="3.27526" fill="#5538CE"/>
<circle cx="175.072" cy="155.568" r="3.27526" fill="#5538CE"/>
<circle cx="175.072" cy="165.03" r="3.27526" fill="#5538CE"/>
<circle cx="175.072" cy="174.492" r="3.27526" fill="#5538CE"/>
<circle cx="175.072" cy="183.954" r="3.27526" fill="#5538CE"/>
<circle cx="175.072" cy="193.415" r="3.27526" fill="#5538CE"/>
<circle cx="175.072" cy="202.878" r="3.27526" fill="#5538CE"/>
<circle cx="175.072" cy="212.339" r="3.27526" fill="#5538CE"/>
<circle cx="175.072" cy="221.802" r="3.27526" fill="#5538CE"/>
<circle cx="175.072" cy="231.264" r="3.27526" fill="#5538CE"/>
<circle cx="175.072" cy="240.725" r="3.27526" fill="#5538CE"/>
<circle cx="185.21" cy="136.644" r="3.27526" fill="#5538CE"/>
<circle cx="185.21" cy="146.106" r="3.27526" fill="#5538CE"/>
<circle cx="185.21" cy="155.568" r="3.27526" fill="#5538CE"/>
<circle cx="185.21" cy="165.03" r="3.27526" fill="#5538CE"/>
<circle cx="185.21" cy="174.492" r="3.27526" fill="#5538CE"/>
<circle cx="185.21" cy="183.954" r="3.27526" fill="#5538CE"/>
<circle cx="185.21" cy="193.415" r="3.27526" fill="#5538CE"/>
<circle cx="185.21" cy="202.878" r="3.27526" fill="#5538CE"/>
<circle cx="185.21" cy="212.339" r="3.27526" fill="#5538CE"/>
<circle cx="185.21" cy="221.802" r="3.27526" fill="#5538CE"/>
<circle cx="185.21" cy="231.264" r="3.27526" fill="#5538CE"/>
<circle cx="185.21" cy="240.725" r="3.27526" fill="#5538CE"/>
<circle cx="195.348" cy="136.644" r="3.27526" fill="#5538CE"/>
<circle cx="195.348" cy="146.106" r="3.27526" fill="#5538CE"/>
<circle cx="195.348" cy="155.568" r="3.27526" fill="#5538CE"/>
<circle cx="195.348" cy="165.03" r="3.27526" fill="#5538CE"/>
<circle cx="195.348" cy="174.492" r="3.27526" fill="#5538CE"/>
<circle cx="195.348" cy="183.954" r="3.27526" fill="#5538CE"/>
<circle cx="195.348" cy="193.415" r="3.27526" fill="#5538CE"/>
<circle cx="195.348" cy="202.878" r="3.27526" fill="#5538CE"/>
<circle cx="195.348" cy="212.339" r="3.27526" fill="#5538CE"/>
<circle cx="195.348" cy="221.802" r="3.27526" fill="#5538CE"/>
<circle cx="195.348" cy="231.264" r="3.27526" fill="#5538CE"/>
<circle cx="195.348" cy="240.725" r="3.27526" fill="#5538CE"/>
<circle cx="205.485" cy="136.644" r="3.27526" fill="#5538CE"/>
<circle cx="205.485" cy="146.106" r="3.27526" fill="#5538CE"/>
<circle cx="205.485" cy="155.568" r="3.27526" fill="#5538CE"/>
<circle cx="205.485" cy="165.03" r="3.27526" fill="#5538CE"/>
<circle cx="205.485" cy="174.492" r="3.27526" fill="#5538CE"/>
<circle cx="205.485" cy="183.954" r="3.27526" fill="#5538CE"/>
<circle cx="205.485" cy="193.415" r="3.27526" fill="#5538CE"/>
<circle cx="205.485" cy="202.878" r="3.27526" fill="#5538CE"/>
<circle cx="205.485" cy="212.339" r="3.27526" fill="#5538CE"/>
<circle cx="205.485" cy="221.802" r="3.27526" fill="#5538CE"/>
<circle cx="205.485" cy="231.264" r="3.27526" fill="#5538CE"/>
<circle cx="205.485" cy="240.725" r="3.27526" fill="#5538CE"/>
<circle cx="215.623" cy="136.644" r="3.27526" fill="#5538CE"/>
<circle cx="215.623" cy="146.106" r="3.27526" fill="#5538CE"/>
<circle cx="215.623" cy="155.568" r="3.27526" fill="#5538CE"/>
<circle cx="215.623" cy="165.03" r="3.27526" fill="#5538CE"/>
<circle cx="215.623" cy="174.492" r="3.27526" fill="#5538CE"/>
<circle cx="215.623" cy="183.954" r="3.27526" fill="#5538CE"/>
<circle cx="215.623" cy="193.415" r="3.27526" fill="#5538CE"/>
<circle cx="215.623" cy="202.878" r="3.27526" fill="#5538CE"/>
<circle cx="215.623" cy="212.339" r="3.27526" fill="#5538CE"/>
<circle cx="215.623" cy="221.802" r="3.27526" fill="#5538CE"/>
<circle cx="215.623" cy="231.264" r="3.27526" fill="#5538CE"/>
<circle cx="215.623" cy="240.725" r="3.27526" fill="#5538CE"/>
<circle cx="225.761" cy="136.644" r="3.27526" fill="#5538CE"/>
<circle cx="225.761" cy="146.106" r="3.27526" fill="#5538CE"/>
<circle cx="225.761" cy="155.568" r="3.27526" fill="#5538CE"/>
<circle cx="225.761" cy="165.03" r="3.27526" fill="#5538CE"/>
<circle cx="225.761" cy="174.492" r="3.27526" fill="#5538CE"/>
<circle cx="225.761" cy="183.954" r="3.27526" fill="#5538CE"/>
<circle cx="225.761" cy="193.415" r="3.27526" fill="#5538CE"/>
<circle cx="225.761" cy="202.878" r="3.27526" fill="#5538CE"/>
<circle cx="225.761" cy="212.339" r="3.27526" fill="#5538CE"/>
<circle cx="225.761" cy="221.802" r="3.27526" fill="#5538CE"/>
<circle cx="225.761" cy="231.264" r="3.27526" fill="#5538CE"/>
<circle cx="225.761" cy="240.725" r="3.27526" fill="#5538CE"/>
<circle cx="235.899" cy="136.644" r="3.27526" fill="#5538CE"/>
<circle cx="235.899" cy="146.106" r="3.27526" fill="#5538CE"/>
<circle cx="235.899" cy="155.568" r="3.27526" fill="#5538CE"/>
<circle cx="235.899" cy="165.03" r="3.27526" fill="#5538CE"/>
<circle cx="235.899" cy="174.492" r="3.27526" fill="#5538CE"/>
<circle cx="235.899" cy="183.954" r="3.27526" fill="#5538CE"/>
<circle cx="235.899" cy="193.415" r="3.27526" fill="#5538CE"/>
<circle cx="235.899" cy="202.878" r="3.27526" fill="#5538CE"/>
<circle cx="235.899" cy="212.339" r="3.27526" fill="#5538CE"/>
<circle cx="235.899" cy="221.802" r="3.27526" fill="#5538CE"/>
<circle cx="235.899" cy="231.264" r="3.27526" fill="#5538CE"/>
<circle cx="235.899" cy="240.725" r="3.27526" fill="#5538CE"/>
<circle cx="246.036" cy="136.644" r="3.27526" fill="#5538CE"/>
<circle cx="246.036" cy="146.106" r="3.27526" fill="#5538CE"/>
<circle cx="246.036" cy="155.568" r="3.27526" fill="#5538CE"/>
<circle cx="246.036" cy="165.03" r="3.27526" fill="#5538CE"/>
<circle cx="246.036" cy="174.492" r="3.27526" fill="#5538CE"/>
<circle cx="246.036" cy="183.954" r="3.27526" fill="#5538CE"/>
<circle cx="246.036" cy="193.415" r="3.27526" fill="#5538CE"/>
<circle cx="246.036" cy="202.878" r="3.27526" fill="#5538CE"/>
<circle cx="246.036" cy="212.339" r="3.27526" fill="#5538CE"/>
<circle cx="246.036" cy="221.802" r="3.27526" fill="#5538CE"/>
<circle cx="246.036" cy="231.264" r="3.27526" fill="#5538CE"/>
<circle cx="246.036" cy="240.725" r="3.27526" fill="#5538CE"/>
<circle cx="256.174" cy="136.644" r="3.27526" fill="#5538CE"/>
<circle cx="256.174" cy="146.106" r="3.27526" fill="#5538CE"/>
<circle cx="256.174" cy="155.568" r="3.27526" fill="#5538CE"/>
<circle cx="256.174" cy="165.03" r="3.27526" fill="#5538CE"/>
<circle cx="256.174" cy="174.492" r="3.27526" fill="#5538CE"/>
<circle cx="256.174" cy="183.954" r="3.27526" fill="#5538CE"/>
<circle cx="256.174" cy="193.415" r="3.27526" fill="#5538CE"/>
<circle cx="256.174" cy="202.878" r="3.27526" fill="#5538CE"/>
<circle cx="256.174" cy="212.339" r="3.27526" fill="#5538CE"/>
<circle cx="256.174" cy="221.802" r="3.27526" fill="#5538CE"/>
<circle cx="256.174" cy="231.264" r="3.27526" fill="#5538CE"/>
<circle cx="256.174" cy="240.725" r="3.27526" fill="#5538CE"/>
<circle cx="266.312" cy="136.644" r="3.27526" fill="#5538CE"/>
<circle cx="266.312" cy="146.106" r="3.27526" fill="#5538CE"/>
<circle cx="266.312" cy="155.568" r="3.27526" fill="#5538CE"/>
<circle cx="266.312" cy="165.03" r="3.27526" fill="#5538CE"/>
<circle cx="266.312" cy="174.492" r="3.27526" fill="#5538CE"/>
<circle cx="266.312" cy="183.954" r="3.27526" fill="#5538CE"/>
<circle cx="266.312" cy="193.415" r="3.27526" fill="#5538CE"/>
<circle cx="266.312" cy="202.878" r="3.27526" fill="#5538CE"/>
<circle cx="266.312" cy="212.339" r="3.27526" fill="#5538CE"/>
<circle cx="266.312" cy="221.802" r="3.27526" fill="#5538CE"/>
<circle cx="266.312" cy="231.264" r="3.27526" fill="#5538CE"/>
<circle cx="266.312" cy="240.725" r="3.27526" fill="#5538CE"/>
<circle cx="276.449" cy="136.644" r="3.27526" fill="#5538CE"/>
<circle cx="276.449" cy="146.106" r="3.27526" fill="#5538CE"/>
<circle cx="276.449" cy="155.568" r="3.27526" fill="#5538CE"/>
<circle cx="276.449" cy="165.03" r="3.27526" fill="#5538CE"/>
<circle cx="276.449" cy="174.492" r="3.27526" fill="#5538CE"/>
<circle cx="276.449" cy="183.954" r="3.27526" fill="#5538CE"/>
<circle cx="276.449" cy="193.415" r="3.27526" fill="#5538CE"/>
<circle cx="276.449" cy="202.878" r="3.27526" fill="#5538CE"/>
<circle cx="276.449" cy="212.339" r="3.27526" fill="#5538CE"/>
<circle cx="276.449" cy="221.802" r="3.27526" fill="#5538CE"/>
<circle cx="276.449" cy="231.264" r="3.27526" fill="#5538CE"/>
<circle cx="276.449" cy="240.725" r="3.27526" fill="#5538CE"/>
<circle cx="286.587" cy="136.644" r="3.27526" fill="#5538CE"/>
<circle cx="286.587" cy="146.106" r="3.27526" fill="#5538CE"/>
<circle cx="286.587" cy="155.568" r="3.27526" fill="#5538CE"/>
<circle cx="286.587" cy="165.03" r="3.27526" fill="#5538CE"/>
<circle cx="286.587" cy="174.492" r="3.27526" fill="#5538CE"/>
<circle cx="286.587" cy="183.954" r="3.27526" fill="#5538CE"/>
<circle cx="286.587" cy="193.415" r="3.27526" fill="#5538CE"/>
<circle cx="286.587" cy="202.878" r="3.27526" fill="#5538CE"/>
<circle cx="286.587" cy="212.339" r="3.27526" fill="#5538CE"/>
<circle cx="286.587" cy="221.802" r="3.27526" fill="#5538CE"/>
<circle cx="286.587" cy="231.264" r="3.27526" fill="#5538CE"/>
<circle cx="286.587" cy="240.725" r="3.27526" fill="#5538CE"/>
<circle cx="296.725" cy="136.644" r="3.27526" fill="#5538CE"/>
<circle cx="296.725" cy="146.106" r="3.27526" fill="#5538CE"/>
<circle cx="296.725" cy="155.568" r="3.27526" fill="#5538CE"/>
<circle cx="296.725" cy="165.03" r="3.27526" fill="#5538CE"/>
<circle cx="296.725" cy="174.492" r="3.27526" fill="#5538CE"/>
<circle cx="296.725" cy="183.954" r="3.27526" fill="#5538CE"/>
<circle cx="296.725" cy="193.415" r="3.27526" fill="#5538CE"/>
<circle cx="296.725" cy="202.878" r="3.27526" fill="#5538CE"/>
<circle cx="296.725" cy="212.339" r="3.27526" fill="#5538CE"/>
<circle cx="296.725" cy="221.802" r="3.27526" fill="#5538CE"/>
<circle cx="296.725" cy="231.264" r="3.27526" fill="#5538CE"/>
<circle cx="296.725" cy="240.725" r="3.27526" fill="#5538CE"/>
</svg>
