<?xml version="1.0" standalone="no"?>
<!DOCTYPE svg PUBLIC "-//W3C//DTD SVG 20010904//EN"
 "http://www.w3.org/TR/2001/REC-SVG-20010904/DTD/svg10.dtd">
<svg version="1.0" xmlns="http://www.w3.org/2000/svg"
 width="574.000000pt" height="435.000000pt" viewBox="0 0 574.000000 435.000000"
 preserveAspectRatio="xMidYMid meet">

<g transform="translate(0.000000,435.000000) scale(0.100000,-0.100000)"
fill="#000000" stroke="none">
<path d="M1067 2452 l-78 -47 3 -102 3 -102 -82 -48 c-45 -26 -85 -55 -88 -63
-4 -10 5 -25 25 -41 l31 -26 -27 -20 c-24 -18 -26 -24 -25 -92 0 -40 3 -77 6
-81 8 -13 145 -90 161 -90 7 0 48 20 90 45 41 25 78 45 81 45 2 0 38 -20 79
-45 40 -25 82 -45 91 -44 10 0 52 21 93 47 l75 48 3 69 c3 68 2 70 -29 96
l-32 26 31 19 c18 10 32 26 32 35 0 9 -35 37 -87 68 l-88 52 3 97 c1 53 -1
102 -5 108 -15 21 -143 94 -166 94 -12 0 -57 -22 -100 -48z m162 -18 c34 -20
61 -40 61 -44 0 -5 -27 -25 -59 -44 -32 -20 -62 -43 -65 -52 -3 -9 -6 -45 -6
-80 0 -35 -2 -64 -5 -64 -3 0 -32 17 -65 38 l-61 37 3 84 3 84 65 37 c36 21
66 39 67 39 1 1 29 -15 62 -35z m-178 -293 c-52 -37 -71 -57 -63 -67 4 -6 44
-34 90 -63 l83 -52 57 32 c92 52 132 79 132 89 0 5 -20 23 -46 40 -36 26 -43
34 -33 46 17 21 23 19 111 -35 l80 -50 -39 -24 c-112 -70 -249 -150 -258 -150
-16 0 -285 165 -285 174 0 5 34 29 77 53 64 38 79 43 97 34 20 -11 20 -11 -3
-27z m133 -97 c21 -8 20 -21 -3 -33 -25 -14 -64 13 -41 29 18 11 23 12 44 4z
m-98 -136 c29 -18 54 -36 54 -40 0 -4 -32 -26 -71 -49 l-72 -43 -54 30 c-82
44 -82 46 -6 92 38 23 74 41 81 42 8 0 38 -15 68 -32z m306 -10 l70 -41 -24
-18 c-28 -22 -97 -59 -108 -59 -4 0 -40 20 -79 44 l-72 44 58 36 c32 19 64 36
71 36 8 0 45 -19 84 -42z"/>
<path d="M2812 2093 c3 -197 3 -198 26 -201 21 -3 22 0 22 65 l0 68 61 -68
c43 -47 68 -67 85 -67 13 0 24 4 24 9 0 5 -25 35 -55 67 -30 33 -55 62 -55 65
0 4 25 30 56 58 l56 51 -33 0 c-27 0 -44 -10 -86 -52 l-53 -52 0 127 0 127
-25 0 -25 0 2 -197z"/>
<path d="M1855 2265 c-54 -24 -71 -55 -67 -121 3 -33 46 -69 108 -90 66 -22
85 -49 64 -88 -21 -40 -82 -48 -122 -16 -25 19 -25 19 -44 -1 -18 -20 -18 -21
1 -35 91 -67 225 -19 225 80 0 58 -19 79 -92 106 -79 28 -88 36 -88 71 0 51
70 77 118 43 21 -15 25 -15 42 1 24 22 19 31 -27 50 -43 18 -78 18 -118 0z"/>
<path d="M3197 2223 c-14 -36 -44 -105 -88 -201 -36 -80 -52 -123 -46 -129 3
-3 17 -3 31 1 19 5 28 17 37 46 14 45 19 47 125 42 l71 -3 19 -42 c15 -33 25
-43 48 -45 24 -3 28 -1 22 15 -4 10 -39 93 -78 186 -67 158 -72 167 -98 167
-23 0 -31 -7 -43 -37z m76 -105 c15 -40 27 -76 27 -80 0 -8 -130 -12 -130 -5
0 2 11 30 24 63 12 32 26 67 29 77 11 30 22 19 50 -55z"/>
<path d="M2105 2212 c-3 -3 -5 -20 -5 -39 0 -29 -3 -33 -25 -33 -18 0 -25 -5
-25 -20 0 -15 7 -20 25 -20 24 0 25 -2 25 -63 0 -70 13 -127 32 -139 7 -4 30
-8 51 -8 30 0 37 4 37 20 0 15 -7 20 -25 20 -33 0 -45 27 -45 104 l0 66 35 0
c28 0 35 4 35 19 0 15 -8 21 -32 23 -29 3 -34 7 -38 38 -5 32 -28 49 -45 32z"/>
<path d="M2317 2135 c-16 -9 -26 -22 -24 -28 4 -12 12 -12 80 -1 41 7 67 -7
67 -36 0 -14 -12 -19 -59 -24 -71 -8 -111 -39 -111 -85 0 -58 95 -95 146 -56
25 19 34 19 34 -1 0 -9 7 -14 18 -12 14 3 17 17 20 100 2 89 1 98 -21 123 -29
35 -106 44 -150 20z m123 -147 c0 -31 -11 -45 -40 -56 -37 -13 -74 0 -78 27
-5 31 24 50 76 51 37 0 42 -3 42 -22z"/>
<path d="M2614 2133 c-43 -21 -64 -61 -64 -121 0 -83 56 -130 145 -120 55 7
82 25 63 44 -10 10 -22 10 -55 1 -38 -10 -46 -9 -70 9 -38 28 -45 102 -14 133
22 22 75 28 100 12 16 -10 51 3 51 18 0 14 -65 41 -97 40 -15 0 -42 -7 -59
-16z"/>
<path d="M3763 2130 c-63 -38 -80 -112 -41 -181 34 -61 121 -78 187 -38 31 18
32 22 18 36 -14 14 -17 14 -38 -1 -32 -22 -81 -20 -113 5 -50 39 -36 49 74 49
l100 0 0 25 c0 99 -102 157 -187 105z m115 -36 c12 -8 22 -24 22 -35 0 -17 -7
-19 -75 -19 -82 0 -89 7 -50 45 28 29 70 32 103 9z"/>
<path d="M4090 2133 c-17 -12 -25 -13 -28 -5 -2 7 -15 12 -28 12 l-25 0 3
-122 c3 -115 4 -123 23 -123 18 0 20 8 25 86 3 51 11 93 19 103 16 19 74 21
89 3 6 -7 12 -53 14 -103 3 -84 4 -89 26 -92 22 -3 22 -2 22 100 0 110 -2 115
-40 141 -31 22 -69 22 -100 0z"/>
<path d="M4653 2134 c-44 -22 -77 -90 -67 -140 4 -20 19 -51 35 -68 25 -29 32
-31 92 -31 50 0 70 4 86 19 19 17 20 22 7 34 -12 13 -17 12 -37 -2 -45 -31
-102 -19 -125 25 l-15 29 106 0 106 0 -7 38 c-9 52 -21 70 -57 92 -39 24 -81
25 -124 4z m109 -41 c8 -10 18 -26 21 -35 6 -16 -2 -18 -74 -18 l-80 0 16 29
c8 16 20 31 27 34 29 12 76 6 90 -10z"/>
<path d="M3430 2133 c0 -5 21 -61 47 -125 40 -103 49 -118 69 -118 15 0 28 10
38 28 13 26 86 210 86 218 0 2 -11 4 -24 4 -21 0 -28 -11 -57 -90 -19 -49 -36
-90 -39 -90 -3 0 -21 41 -39 90 -29 79 -36 90 -57 90 -13 0 -24 -3 -24 -7z"/>
<path d="M4302 2038 c5 -95 7 -103 32 -125 32 -27 90 -31 124 -7 20 14 22 14
22 0 0 -19 36 -22 43 -3 2 6 4 63 4 125 1 111 1 112 -23 112 -23 0 -24 -3 -24
-69 0 -71 -12 -120 -33 -133 -7 -4 -24 -8 -39 -8 -43 0 -58 32 -58 127 0 83 0
83 -26 83 l-27 0 5 -102z"/>
</g>
</svg>
