<svg width="100" height="100" viewBox="0 0 100 100" fill="none" xmlns="http://www.w3.org/2000/svg">
<path d="M85.8275 50.0004C85.8275 54.7053 84.9008 59.3642 83.1003 63.711C81.2998 68.0578 78.6607 72.0074 75.3338 75.3343C72.0069 78.6612 68.0573 81.3002 63.7105 83.1007C59.3637 84.9012 54.7049 85.8279 49.9999 85.8279C45.295 85.8279 40.6361 84.9012 36.2893 83.1007C31.9425 81.3002 27.9929 78.6612 24.666 75.3343C21.3391 72.0074 18.7001 68.0578 16.8996 63.711C15.0991 59.3642 14.1724 54.7053 14.1724 50.0004H14.6262C14.6262 54.6457 15.5411 59.2456 17.3188 63.5373C19.0965 67.8291 21.7021 71.7287 24.9869 75.0134C28.2717 78.2982 32.1712 80.9038 36.463 82.6815C40.7547 84.4592 45.3546 85.3741 49.9999 85.3741C54.6453 85.3741 59.2451 84.4592 63.5369 82.6815C67.8286 80.9038 71.7282 78.2982 75.0129 75.0134C78.2977 71.7287 80.9033 67.8291 82.681 63.5373C84.4587 59.2456 85.3737 54.6457 85.3737 50.0004H85.8275Z" fill="#8A8C9A"/>
<path d="M73.7301 50.4659C73.7301 53.3988 73.1524 56.3031 72.03 59.0128C70.9077 61.7225 69.2625 64.1845 67.1886 66.2585C65.1147 68.3324 62.6526 69.9775 59.9429 71.0999C57.2332 72.2223 54.329 72.7999 51.3961 72.7999C48.4631 72.7999 45.5589 72.2223 42.8492 71.0999C40.1395 69.9775 37.6774 68.3324 35.6035 66.2585C33.5296 64.1845 31.8845 61.7225 30.7621 59.0128C29.6397 56.3031 29.062 53.3988 29.062 50.4659H30.1196C30.1196 53.26 30.67 56.0267 31.7392 58.608C32.8085 61.1894 34.3757 63.5349 36.3514 65.5106C38.3271 67.4863 40.6726 69.0535 43.2539 70.1227C45.8353 71.192 48.602 71.7423 51.3961 71.7423C54.1901 71.7423 56.9568 71.192 59.5382 70.1228C62.1196 69.0535 64.4651 67.4863 66.4408 65.5106C68.4165 63.5349 69.9837 61.1894 71.0529 58.608C72.1222 56.0267 72.6725 53.26 72.6725 50.4659H73.7301Z" fill="#8A8C9A"/>
<path d="M15.7452 39.5014C18.3943 30.8579 24.2131 23.5353 32.0349 19.0022C39.8566 14.469 49.1029 13.0604 57.9197 15.0588L57.7897 15.6321C49.1176 13.6665 40.023 15.052 32.3296 19.5108C24.6362 23.9696 18.9129 31.1719 16.3072 39.6737L15.7452 39.5014Z" fill="#8A8C9A"/>
<circle cx="51.3962" cy="47.6735" r="14.8894" fill="#8A8C9A"/>
</svg>
