<svg width="25" height="24" viewBox="0 0 25 24" fill="none" xmlns="http://www.w3.org/2000/svg">
<path d="M10.3086 19.2725C10.5675 19.2725 10.7773 19.0626 10.7773 18.8037C10.7773 18.5448 10.5675 18.335 10.3086 18.335C10.0497 18.335 9.83984 18.5448 9.83984 18.8037C9.83984 19.0626 10.0497 19.2725 10.3086 19.2725Z" fill="#5538CE"/>
<path d="M15.264 8.76034C15.0809 8.57729 14.7841 8.57729 14.601 8.76029L2.70566 20.6557C2.61777 20.7436 2.56836 20.8629 2.56836 20.9872C2.56836 21.1115 2.61777 21.2307 2.70566 21.3186L5.24984 23.8628C5.34139 23.9544 5.46134 24.0001 5.5813 24.0001C5.70125 24.0001 5.8212 23.9543 5.91275 23.8628L9.14609 20.6295C9.32914 20.4464 9.32914 20.1496 9.14609 19.9666C8.963 19.7835 8.66628 19.7835 8.48314 19.9666L5.5813 22.8684L3.70002 20.9872L12.4869 12.2003L14.3682 14.0815L11.4663 16.9834C11.2832 17.1665 11.2832 17.4633 11.4663 17.6463C11.6494 17.8294 11.9461 17.8294 12.1292 17.6464L17.8081 11.9675C17.9912 11.7844 17.9912 11.4876 17.8081 11.3046L15.264 8.76034ZM15.0311 13.4186L13.1498 11.5374L14.9325 9.7547L16.8138 11.636L15.0311 13.4186Z" fill="#5538CE"/>
<path d="M2.90832 14.2848L4.17357 13.6746L5.43886 14.2848C5.50355 14.3159 5.57311 14.3313 5.64244 14.3313C5.73975 14.3313 5.8365 14.301 5.91802 14.2418C6.05766 14.1403 6.13022 13.9704 6.10697 13.7994L5.91764 12.4075L6.88894 11.3927C7.00824 11.268 7.04944 11.0878 6.9961 10.9237C6.94275 10.7595 6.80358 10.638 6.63375 10.6073L5.2515 10.3572L4.58649 9.11989C4.50478 8.96787 4.34616 8.87305 4.17357 8.87305C4.00097 8.87305 3.84239 8.96787 3.76064 9.11989L3.09567 10.3572L1.71343 10.6073C1.5436 10.638 1.40438 10.7595 1.35108 10.9237C1.29774 11.0878 1.33894 11.268 1.45824 11.3927L2.42953 12.4075L2.24021 13.7994C2.21696 13.9704 2.28957 14.1403 2.42916 14.2418C2.56885 14.3432 2.75297 14.3597 2.90832 14.2848ZM3.48507 11.2395C3.6256 11.2141 3.74691 11.126 3.8145 11.0002L4.17357 10.332L4.53267 11.0002C4.60027 11.126 4.72158 11.2141 4.86211 11.2395L5.60855 11.3746L5.08402 11.9225C4.9853 12.0257 4.93894 12.1683 4.95816 12.3098L5.06044 13.0615L4.37714 12.732C4.31283 12.701 4.24317 12.6854 4.17352 12.6854C4.10391 12.6854 4.03421 12.701 3.96989 12.732L3.28664 13.0615L3.38892 12.3098C3.40814 12.1683 3.36183 12.0257 3.26307 11.9225L2.73858 11.3746L3.48507 11.2395Z" fill="#5538CE"/>
<path d="M22.8418 3.86412C22.7884 3.70001 22.6492 3.57841 22.4794 3.54771L21.0972 3.29763L20.4322 2.06032C20.3505 1.9083 20.1919 1.81348 20.0193 1.81348C19.8467 1.81348 19.6881 1.9083 19.6063 2.06032L18.9414 3.29763L17.5591 3.54771C17.3893 3.57841 17.2501 3.70001 17.1968 3.86412C17.1434 4.02823 17.1846 4.20841 17.3039 4.3331L18.2752 5.3479L18.0859 6.73981C18.0627 6.91081 18.1353 7.08077 18.2749 7.18221C18.3564 7.24146 18.4531 7.27174 18.5504 7.27174C18.6198 7.27174 18.6894 7.25637 18.754 7.2252L20.0193 6.61502L21.2846 7.2252C21.44 7.30015 21.6241 7.2836 21.7637 7.18221C21.9034 7.08077 21.9759 6.91081 21.9527 6.73981L21.7633 5.3479L22.7346 4.3331C22.8539 4.20841 22.8951 4.02827 22.8418 3.86412ZM20.9297 4.86298C20.831 4.96615 20.7846 5.10874 20.8039 5.25026L20.9061 6.0019L20.2229 5.67241C20.0943 5.6103 19.9444 5.61035 19.8156 5.67241L19.1323 6.0019L19.2346 5.25026C19.2538 5.10874 19.2075 4.96615 19.1088 4.86298L18.5843 4.31501L19.3307 4.17996C19.4713 4.15451 19.5926 4.06643 19.6602 3.94057L20.0193 3.27241L20.3783 3.94057C20.4459 4.06638 20.5672 4.15451 20.7078 4.17996L21.4542 4.31501L20.9297 4.86298Z" fill="#5538CE"/>
<path d="M7.49707 4.69959L7.21957 6.73964C7.19632 6.91064 7.26892 7.08061 7.40852 7.18205C7.54821 7.28348 7.73228 7.30003 7.88768 7.22503L9.74214 6.33075L11.5966 7.22503C11.6613 7.2562 11.7308 7.27158 11.8001 7.27158C11.8975 7.27158 11.9942 7.2413 12.0757 7.18205C12.2154 7.08061 12.2879 6.91064 12.2647 6.73964L11.9872 4.69959L13.4108 3.2123C13.5301 3.08761 13.5713 2.90747 13.5179 2.74331C13.4646 2.5792 13.3254 2.45766 13.1556 2.42691L11.1296 2.06034L10.155 0.246844C10.0733 0.0948281 9.91474 0 9.74214 0C9.56955 0 9.41093 0.0948281 9.32922 0.246844L8.3546 2.06034L6.32866 2.42691C6.15883 2.45766 6.01961 2.5792 5.96632 2.74331C5.91297 2.90742 5.95417 3.08761 6.07347 3.21225L7.49707 4.69959ZM8.74394 2.94263C8.88447 2.91717 9.00578 2.82909 9.07338 2.70323L9.74214 1.45889L10.4109 2.70323C10.4785 2.82905 10.5998 2.91717 10.7403 2.94263L12.1304 3.19411L11.1536 4.21463C11.0549 4.3178 11.0086 4.46039 11.0278 4.60191L11.2182 6.00169L9.94572 5.38805C9.88141 5.35702 9.81175 5.3415 9.7421 5.3415C9.67249 5.3415 9.60278 5.35702 9.53847 5.38805L8.26605 6.00164L8.45646 4.60186C8.47568 4.46034 8.42936 4.31775 8.3306 4.21458L7.35377 3.19406L8.74394 2.94263Z" fill="#5538CE"/>
</svg>
