<svg width="20" height="21" viewBox="0 0 20 21" fill="none" xmlns="http://www.w3.org/2000/svg">
<g clip-path="url(#clip0_1049_2711)">
<path d="M20 10.5C20 15.4914 16.343 19.6285 11.5625 20.3785V13.3906H13.8926L14.3359 10.5H11.5625V8.62422C11.5625 7.8332 11.95 7.0625 13.1922 7.0625H14.4531V4.60156C14.4531 4.60156 13.3086 4.40625 12.2145 4.40625C9.93047 4.40625 8.4375 5.79063 8.4375 8.29688V10.5H5.89844V13.3906H8.4375V20.3785C3.65703 19.6285 0 15.4914 0 10.5C0 4.97734 4.47734 0.5 10 0.5C15.5227 0.5 20 4.97734 20 10.5Z" fill="#1877F2"/>
<path d="M13.8926 13.3906L14.3359 10.5H11.5625V8.62418C11.5625 7.83336 11.9499 7.0625 13.1921 7.0625H14.4531V4.60156C14.4531 4.60156 13.3088 4.40625 12.2146 4.40625C9.93043 4.40625 8.4375 5.79063 8.4375 8.29688V10.5H5.89844V13.3906H8.4375V20.3785C8.94664 20.4584 9.46844 20.5 10 20.5C10.5316 20.5 11.0534 20.4584 11.5625 20.3785V13.3906H13.8926Z" fill="white"/>
</g>
<defs>
<clipPath id="clip0_1049_2711">
<rect width="20" height="20" fill="white" transform="translate(0 0.5)"/>
</clipPath>
</defs>
</svg>
