<svg width="20" height="21" viewBox="0 0 20 21" fill="none" xmlns="http://www.w3.org/2000/svg">
<path d="M1.36363 18.0022H4.54547V10.2749L2.46195 6.63672L0 6.86582V16.6386C0 17.392 0.610234 18.0022 1.36363 18.0022Z" fill="#0085F7"/>
<path d="M15.4551 18.0022H18.6369C19.3903 18.0022 20.0005 17.392 20.0005 16.6386V6.86582L17.5421 6.63672L15.4551 10.2749V18.0022H15.4551Z" fill="#00A94B"/>
<path d="M15.455 4.36535L13.5859 7.93187L15.455 10.2744L20.0004 6.86535V5.04718C20.0004 3.36195 18.0766 2.39945 16.7277 3.41081L15.455 4.36535Z" fill="#FFBC00"/>
<path fill-rule="evenodd" clip-rule="evenodd" d="M4.54465 10.2743L2.76367 6.51223L4.54465 4.36523L9.99918 8.45613L15.4537 4.36523V10.2743L9.99918 14.3652L4.54465 10.2743Z" fill="#FF4131"/>
<path d="M0 5.04718V6.86535L4.54547 10.2744V4.36535L3.27273 3.41081C1.92387 2.39945 0 3.36195 0 5.04718Z" fill="#E51C19"/>
</svg>
