<svg width="145" height="31" viewBox="0 0 145 31" fill="none" xmlns="http://www.w3.org/2000/svg">
<path d="M8 1V0H7V1H8ZM7.29289 30.2071C7.68342 30.5976 8.31658 30.5976 8.70711 30.2071L15.0711 23.8431C15.4616 23.4526 15.4616 22.8195 15.0711 22.4289C14.6805 22.0384 14.0474 22.0384 13.6569 22.4289L8 28.0858L2.34315 22.4289C1.95262 22.0384 1.31946 22.0384 0.928932 22.4289C0.538408 22.8195 0.538408 23.4526 0.928932 23.8431L7.29289 30.2071ZM144.5 0H8V2H144.5V0ZM7 1V29.5H9V1H7Z" fill="white"/>
</svg>
