<svg width="20" height="21" viewBox="0 0 20 21" fill="none" xmlns="http://www.w3.org/2000/svg">
<g clip-path="url(#clip0_1049_2777)">
<path d="M10 20.5C15.5228 20.5 20 16.0228 20 10.5C20 4.97715 15.5228 0.5 10 0.5C4.47715 0.5 0 4.97715 0 10.5C0 16.0228 4.47715 20.5 10 20.5Z" fill="#007AB9"/>
<path d="M15.974 11.3052V15.428H13.5837V11.5815C13.5837 10.6157 13.2386 9.95615 12.3732 9.95615C11.7127 9.95615 11.3204 10.4002 11.1471 10.8302C11.0842 10.9838 11.0679 11.1972 11.0679 11.4127V15.4278H8.67748C8.67748 15.4278 8.70956 8.91316 8.67748 8.2388H11.0681V9.25755C11.0633 9.26558 11.0565 9.27342 11.0522 9.28109H11.0681V9.25755C11.3858 8.76877 11.9523 8.06999 13.2224 8.06999C14.795 8.06999 15.974 9.09748 15.974 11.3052ZM6.17685 4.77344C5.35918 4.77344 4.82422 5.31018 4.82422 6.01537C4.82422 6.70559 5.34367 7.25784 6.14548 7.25784H6.16099C6.99471 7.25784 7.51308 6.70559 7.51308 6.01537C7.49722 5.31018 6.99471 4.77344 6.17685 4.77344ZM4.96629 15.428H7.35586V8.2388H4.96629V15.428Z" fill="#F1F2F2"/>
</g>
<defs>
<clipPath id="clip0_1049_2777">
<rect width="20" height="20" fill="white" transform="translate(0 0.5)"/>
</clipPath>
</defs>
</svg>
