<svg width="24" height="24" viewBox="0 0 24 24" fill="none" xmlns="http://www.w3.org/2000/svg">
<g clip-path="url(#clip0_953_827)">
<path d="M13.2041 0.166688L12.7104 6.24666C12.4757 6.21985 12.2396 6.20648 12.0034 6.20662C11.7031 6.20662 11.4096 6.22669 11.1228 6.27338L10.8425 3.32663C10.8408 3.30455 10.8437 3.28237 10.851 3.26147C10.8583 3.24057 10.8698 3.2214 10.8849 3.20514C10.8999 3.18889 10.9181 3.17591 10.9384 3.167C10.9587 3.15809 10.9805 3.15346 11.0027 3.15338H11.503L11.2628 0.173344C11.2562 0.0799688 11.3295 0 11.4163 0H13.0507C13.1441 0 13.2175 0.0799688 13.2041 0.173344V0.166688ZM9.08137 0.466688C9.05465 0.379969 8.96127 0.326625 8.87455 0.36L7.34015 0.919969C7.25343 0.953344 7.2134 1.05338 7.25343 1.13334L8.50096 3.85331L8.02733 4.02675C7.94052 4.06003 7.90058 4.15997 7.94052 4.24003L9.21477 6.91331C9.68182 6.65605 10.1825 6.46533 10.7024 6.34669L9.08812 0.466688H9.08137ZM5.3188 2.16L8.84783 7.13334C8.40083 7.42669 7.99396 7.77338 7.64699 8.17331L5.53227 6.09338C5.51687 6.07788 5.50478 6.05942 5.49674 6.03911C5.4887 6.0188 5.48487 5.99706 5.48549 5.97523C5.48612 5.95339 5.49117 5.93191 5.50036 5.91209C5.50955 5.89227 5.52267 5.87453 5.53893 5.85994L5.92583 5.53997L3.82443 3.41344C3.75777 3.34678 3.76443 3.24009 3.83774 3.18009L5.08527 2.13347C5.15868 2.07347 5.25871 2.08678 5.31215 2.16009L5.3188 2.16ZM2.35677 5.04C2.28337 4.98666 2.17668 5.01337 2.1299 5.09334L1.31615 6.50663C1.26937 6.58669 1.30274 6.68663 1.38271 6.72666L4.09124 8.00663L3.83774 8.44003C3.79105 8.52 3.82443 8.62659 3.91115 8.65997L6.60637 9.89334C6.79767 9.39697 7.05818 8.93013 7.38018 8.50669L2.35677 5.04ZM0.362053 8.88C0.375459 8.78662 0.468834 8.73338 0.555553 8.75334L6.45955 10.2934C6.3035 10.8038 6.21821 11.3331 6.20605 11.8667L3.25068 11.6267C3.22857 11.6252 3.20705 11.619 3.18757 11.6084C3.1681 11.5978 3.15113 11.5832 3.13783 11.5655C3.12454 11.5478 3.11522 11.5274 3.11052 11.5057C3.10583 11.4841 3.10586 11.4617 3.11062 11.44L3.19733 10.9466L0.215334 10.6667C0.121959 10.66 0.0618657 10.5733 0.0751782 10.48L0.355491 8.87334L0.362053 8.88ZM0.141928 12.8666C0.0485532 12.8734 -0.0115406 12.96 0.00186566 13.0534L0.288741 14.66C0.302053 14.7533 0.395428 14.8067 0.482147 14.7866L3.37743 14.0333L3.46415 14.5267C3.47755 14.62 3.57093 14.6734 3.65765 14.6533L6.5129 13.8668C6.34612 13.3733 6.23943 12.8468 6.21271 12.3068L0.135272 12.8666H0.141928ZM1.08937 17.0934C1.04268 17.0135 1.07596 16.9134 1.15602 16.8734L6.66646 14.2601C6.87327 14.7534 7.15349 15.2135 7.48705 15.6267L5.07187 17.3467C4.99846 17.4 4.89177 17.38 4.84499 17.3L4.59149 16.86L2.1299 18.56C2.05649 18.6134 1.94971 18.5867 1.90302 18.5066L1.08252 17.0933L1.08937 17.0934ZM7.76718 15.9468L3.47755 20.2866C3.4108 20.3532 3.41755 20.4599 3.49087 20.5199L4.74505 21.5665C4.81846 21.6265 4.91849 21.6132 4.97193 21.5399L6.7064 19.0999L7.0933 19.4266C7.16671 19.4866 7.27349 19.4733 7.32674 19.3932L9.00796 16.9533C8.5543 16.6733 8.13402 16.3332 7.77374 15.9466L7.76718 15.9468ZM6.91996 22.9133C6.83324 22.8801 6.79321 22.7801 6.83324 22.7001L9.37499 17.1534C9.84187 17.3934 10.349 17.5734 10.8759 17.6735L10.1287 20.5401C10.1088 20.6268 10.0087 20.6801 9.92202 20.6467L9.4484 20.4734L8.65452 23.3601C8.6278 23.4468 8.53443 23.5001 8.44771 23.4667L6.9133 22.9068L6.91996 22.9133ZM11.2962 17.7468L10.8026 23.8267C10.796 23.9201 10.8693 24.0001 10.9561 24.0001H12.5905C12.6839 24.0001 12.7573 23.9201 12.7439 23.8267L12.5038 20.8467H13.0041C13.0262 20.8466 13.0481 20.842 13.0683 20.8331C13.0886 20.8242 13.1068 20.8112 13.1218 20.7949C13.1368 20.7787 13.1483 20.7595 13.1556 20.7386C13.1629 20.7177 13.1658 20.6955 13.1642 20.6735L12.8841 17.7267C12.5972 17.7734 12.3036 17.7935 12.0035 17.7935C11.7633 17.7935 11.5297 17.7801 11.2963 17.7468M17.1803 1.28672C17.2204 1.20009 17.1803 1.10672 17.0936 1.07344L15.5593 0.513469C15.4725 0.480094 15.3791 0.533437 15.3525 0.620062L14.5586 3.50672L14.0849 3.33347C13.9982 3.30009 13.9048 3.35344 13.8781 3.44006L13.1309 6.30675C13.6646 6.41344 14.165 6.59344 14.6319 6.82678L17.1803 1.28672ZM20.5293 3.70678L16.2396 8.04656C15.8762 7.65605 15.4609 7.31732 15.0053 7.03988L16.6866 4.59994C16.7399 4.52653 16.8466 4.50656 16.92 4.56656L17.3069 4.89328L19.0415 2.45325C19.0949 2.37994 19.2016 2.36653 19.2683 2.42653L20.5224 3.47325C20.5958 3.53325 20.5958 3.63994 20.5358 3.70659L20.5293 3.70678ZM22.8509 7.12012C22.9376 7.08009 22.9643 6.98006 22.9176 6.90009L22.0969 5.48662C22.0502 5.40666 21.9434 5.38669 21.87 5.43338L19.4084 7.13334L19.1549 6.70003C19.1081 6.61997 19.0014 6.59334 18.928 6.65334L16.513 8.37337C16.8466 8.78662 17.1201 9.24666 17.3336 9.73997L22.8441 7.12669L22.8509 7.12012ZM23.7181 9.33347L23.9984 10.9401C24.0117 11.0334 23.9516 11.1135 23.8582 11.1267L17.7808 11.6934C17.7541 11.1468 17.6473 10.6267 17.4805 10.1334L20.3359 9.34678C20.4226 9.32006 20.516 9.38006 20.5293 9.47334L20.616 9.96675L23.5114 9.21347C23.5981 9.19341 23.6914 9.24675 23.7048 9.34003L23.7181 9.33347ZM23.4446 15.2334C23.5313 15.2534 23.6247 15.2001 23.6381 15.1068L23.9181 13.5C23.9315 13.4066 23.8714 13.3267 23.778 13.3133L20.796 13.0333L20.8827 12.54C20.896 12.4466 20.836 12.3667 20.7426 12.3533L17.7873 12.1133C17.7751 12.6469 17.6898 13.1763 17.5338 13.6867L23.4378 15.2267L23.4446 15.2334ZM21.87 18.9C21.8233 18.98 21.7166 19 21.6432 18.9533L16.6198 15.4867C16.9418 15.0632 17.2023 14.5964 17.3936 14.1L20.0888 15.3334C20.1756 15.3733 20.2088 15.4733 20.1622 15.5533L19.9087 15.9866L22.6172 17.2667C22.6972 17.3066 22.7306 17.4067 22.6839 17.4866L21.87 18.9ZM15.1521 16.8533L18.6812 21.8267C18.7346 21.9 18.8413 21.9133 18.9081 21.8533L20.1555 20.8067C20.2289 20.7467 20.2289 20.64 20.1689 20.5732L18.0675 18.4466L18.4544 18.1267C18.5278 18.0667 18.5278 17.96 18.461 17.8933L16.3462 15.8134C15.9927 16.2133 15.5925 16.5667 15.1455 16.8533H15.1521ZM15.1188 23.6267C15.0321 23.66 14.9387 23.6066 14.912 23.52L13.2976 17.64C13.8174 17.5214 14.3182 17.3306 14.7852 17.0734L16.0595 19.7467C16.0994 19.8334 16.0595 19.9333 15.9726 19.96L15.499 20.1334L16.7466 22.8533C16.7866 22.94 16.7466 23.0333 16.6598 23.0666L15.1254 23.6267H15.1188Z" fill="#5538CE"/>
</g>
<defs>
<clipPath id="clip0_953_827">
<rect width="24" height="24" fill="white"/>
</clipPath>
</defs>
</svg>
