<svg width="100" height="100" viewBox="0 0 100 100" fill="none" xmlns="http://www.w3.org/2000/svg">
<path d="M50.1953 61.7188C54.1864 61.7188 57.4219 58.4833 57.4219 54.4922C57.4219 50.5011 54.1864 47.2656 50.1953 47.2656C46.2042 47.2656 42.9688 50.5011 42.9688 54.4922C42.9688 58.4833 46.2042 61.7188 50.1953 61.7188Z" fill="white"/>
<path fill-rule="evenodd" clip-rule="evenodd" d="M34.8709 27.2754L50.4736 18.0469L65.349 27.1781L65.4439 44.566L58.0588 49.2812C58.0588 49.2812 53.715 45.1734 49.7639 45.1727C45.8119 45.1719 42.2639 49.2781 42.2639 49.2781L35.299 44.5867L34.8709 27.2754ZM36.6834 43.0023L49.4697 35.3773L49.3369 20.5141L36.208 28.3211L36.6834 43.0023ZM37.3982 44.8797C38.1123 44.8797 42.0857 47.5824 42.0857 47.5824C42.0857 47.5824 45.6748 43.5875 49.9088 43.7176C54.1424 43.8477 58.2365 47.6883 58.2365 47.6883L63.8303 44.393L50.3537 37.1672C50.3537 37.1672 36.6838 44.8797 37.3982 44.8797ZM34.2475 81.9594L18.4541 73.0609L18.924 55.6129L34.3256 46.4461L41.7111 50.875C41.7111 50.875 40.3775 56.4953 42.3525 59.918C44.3279 63.3406 49.6061 64.5551 49.6061 64.5551L49.4162 72.9324L34.2475 81.9594ZM46.9611 72.5258L33.9643 65.2656L21.1592 72.8117L34.4842 80.2785L46.9607 72.5262L46.9611 72.5258ZM48.2295 70.9684C47.8721 70.35 48.2264 65.5574 48.2264 65.5574C48.2264 65.5574 43.0244 64.2512 41.0201 60.5195C39.0162 56.7883 40.2428 51.5176 40.2428 51.5176L34.5916 48.3207L35.0725 63.6047C35.0725 63.6047 48.5865 71.5867 48.2295 70.968V70.9684ZM81.2041 55.009L81.3947 73.1356L66.0494 81.4527L50.9436 72.841L50.5529 64.4777C50.5529 64.4777 55.8389 63.3566 57.8154 59.9348C59.792 56.5129 58.8432 50.8008 58.8432 50.8008L65.9978 46.7242L81.2041 55.009ZM66.6779 48.7152L66.8889 63.6012L79.8264 70.9176L79.6303 55.6445L66.6779 48.7152ZM65.0854 48.7867L60.401 51.4945C60.401 51.4945 61.2326 57.1863 59.0029 60.7875C56.7732 64.3891 52.2338 65.4285 52.2338 65.4285L52.2908 71.1395L64.8963 63.4715L65.0854 48.7867Z" fill="white"/>
</svg>
