<svg width="144" height="31" viewBox="0 0 144 31" fill="none" xmlns="http://www.w3.org/2000/svg">
<path d="M136.5 1V0H137.5V1H136.5ZM137.207 30.2071C136.817 30.5976 136.183 30.5976 135.793 30.2071L129.429 23.8431C129.038 23.4526 129.038 22.8195 129.429 22.4289C129.819 22.0384 130.453 22.0384 130.843 22.4289L136.5 28.0858L142.157 22.4289C142.547 22.0384 143.181 22.0384 143.571 22.4289C143.962 22.8195 143.962 23.4526 143.571 23.8431L137.207 30.2071ZM0 0H136.5V2H0V0ZM137.5 1V29.5H135.5V1H137.5Z" fill="white"/>
</svg>
