<svg width="20" height="21" viewBox="0 0 20 21" fill="none" xmlns="http://www.w3.org/2000/svg">
<g clip-path="url(#clip0_1049_2818)">
<path d="M19.7551 7.68011L11.4738 1.82073C11.2941 1.69198 11.0595 1.67538 10.865 1.77667C10.6693 1.87679 10.5468 2.07765 10.5468 2.29737V5.24253C4.67949 5.54808 0 10.4181 0 16.3599V18.7036C0 18.996 0.215156 19.2432 0.504687 19.2839C0.787227 19.3251 1.06813 19.15 1.14898 18.865L1.23937 18.5485C2.44102 14.344 6.21871 11.3525 10.5469 11.103V14.0161C10.5469 14.2359 10.6693 14.4367 10.865 14.5368C11.0596 14.6381 11.2942 14.6204 11.4739 14.4928L19.7551 8.63339C19.9085 8.52351 20 8.34612 20 8.15675C20 7.96737 19.9084 7.78995 19.7551 7.68011Z" fill="url(#paint0_linear_1049_2818)"/>
</g>
<defs>
<linearGradient id="paint0_linear_1049_2818" x1="10" y1="19.2898" x2="10" y2="1.71093" gradientUnits="userSpaceOnUse">
<stop stop-color="#5558FF"/>
<stop offset="1" stop-color="#00C0FF"/>
</linearGradient>
<clipPath id="clip0_1049_2818">
<rect width="20" height="20" fill="white" transform="translate(0 0.5)"/>
</clipPath>
</defs>
</svg>
