<svg width="24" height="24" viewBox="0 0 24 24" fill="none" xmlns="http://www.w3.org/2000/svg">
<g clip-path="url(#clip0_953_866)">
<path d="M11.1562 24H5.625C2.52338 24 0 21.4766 0 18.375V5.625C0 2.52338 2.52338 0 5.625 0H9.51562C11.1268 0 12.6618 0.6765 13.727 1.85602C14.074 2.2403 14.0438 2.83313 13.6596 3.18014C13.2754 3.52716 12.6825 3.49697 12.3355 3.11273C11.6251 2.32612 10.5973 1.875 9.51562 1.875H5.625C3.55725 1.875 1.875 3.55725 1.875 5.625V18.375C1.875 20.4427 3.55725 22.125 5.625 22.125H11.1562C12.3988 22.1711 12.3979 23.9543 11.1562 24ZM4.78125 19.8281C4.26347 19.8281 3.84375 19.4084 3.84375 18.8906V9.46875C3.84375 6.88406 5.94656 4.78125 8.53125 4.78125H19.3125C21.8972 4.78125 24 6.88406 24 9.46875V10.9219C23.9539 12.1644 22.1707 12.1635 22.125 10.9219V9.46875C22.125 7.91794 20.8633 6.65625 19.3125 6.65625H8.53125C6.98044 6.65625 5.71875 7.91794 5.71875 9.46875V18.8906C5.71875 19.4084 5.29903 19.8281 4.78125 19.8281ZM20.25 24H17.0156C14.9479 24 13.2656 22.3177 13.2656 20.25V18.9844C13.2656 17.3257 14.3481 15.915 15.8438 15.4218V14.2031C15.8479 11.5825 19.1294 10.4181 20.8215 12.3747C21.1583 12.768 21.1124 13.3598 20.7191 13.6965C20.3258 14.0332 19.734 13.9874 19.3972 13.594C18.8297 12.9496 17.7216 13.3153 17.7188 14.2031V15.2344H20.25C22.3177 15.2344 24 16.9166 24 18.9844V20.25C24 22.3177 22.3177 24 20.25 24ZM17.0156 17.1094C15.9818 17.1094 15.1406 17.9505 15.1406 18.9844V20.25C15.1406 21.2839 15.9818 22.125 17.0156 22.125H20.25C21.2839 22.125 22.125 21.2839 22.125 20.25V18.9844C22.125 17.9505 21.2839 17.1094 20.25 17.1094H17.0156ZM18.6562 20.8125C18.0101 20.8125 17.4844 20.2868 17.4844 19.6406C17.5433 18.0881 19.7694 18.0885 19.8281 19.6406C19.8281 20.2868 19.3024 20.8125 18.6562 20.8125Z" fill="#5538CE"/>
</g>
<defs>
<clipPath id="clip0_953_866">
<rect width="24" height="24" fill="white"/>
</clipPath>
</defs>
</svg>
