<svg width="24" height="25" viewBox="0 0 24 25" fill="none" xmlns="http://www.w3.org/2000/svg">
<path d="M9.68598 12.1234C9.68598 12.1234 11.9569 11.9548 11.9569 9.29105C11.9569 6.62756 10.0988 5.32812 7.74497 5.32812H3.41254H3.28528H0V20.2123H3.28528H3.41254H7.74497C7.74497 20.2123 12.473 20.3619 12.473 15.8193C12.4732 15.8193 12.6794 12.1234 9.68598 12.1234ZM3.41254 7.97383H7.18757H7.74522C7.74522 7.97383 8.79815 7.97383 8.79815 9.52228C8.79815 11.0707 8.17862 11.2952 7.47667 11.2952H3.41254V7.97383ZM7.54531 17.5674H3.41254V13.5894H7.74497C7.74497 13.5894 9.31421 13.5694 9.31421 15.6336C9.31421 17.3549 8.16659 17.5501 7.54531 17.5674Z" fill="white"/>
<path d="M15.5781 6.20508H21.7193V8.03811H15.5781V6.20508Z" fill="white"/>
<path d="M18.7786 9.11523C13.0548 9.11523 13.0598 14.8335 13.0598 14.8335C13.0598 14.8335 12.6675 20.5235 18.7788 20.5235C18.7788 20.5235 23.8721 20.8146 23.8721 16.5651H21.2527C21.2527 16.5651 21.3401 18.1662 18.8662 18.1662C18.8662 18.1662 16.2471 18.3413 16.2471 15.5758H23.9592C23.9592 15.5758 24.803 9.11523 18.7786 9.11523ZM21.1069 13.5892H16.2175C16.2175 13.5892 16.5374 11.295 18.8367 11.295C21.1362 11.2947 21.1069 13.5892 21.1069 13.5892Z" fill="white"/>
</svg>
