<svg width="201" height="202" viewBox="0 0 201 202" fill="none" xmlns="http://www.w3.org/2000/svg">
<path d="M95.1177 186.91L94.1866 196.665L93.0159 196.554L93.8353 187.969L89.4661 187.552L89.5779 186.381L95.1177 186.91Z" fill="black"/>
<path d="M84.2616 185.513L82.1126 195.075L76.246 193.756L76.5038 192.609L81.2231 193.669L81.834 190.951L77.9685 190.082L78.2263 188.935L82.0919 189.804L82.8563 186.403L78.1371 185.342L78.3949 184.195L84.2616 185.513Z" fill="black"/>
<path d="M63.3398 189.427L63.7451 188.323L66.8073 189.447L69.7794 181.352L70.8833 181.757L67.9112 189.853L70.9668 190.974L70.5615 192.078L63.3398 189.427Z" fill="black"/>
<path d="M60.4811 184.04L58.475 187.125L57.4204 186.605L59.7781 183.693L60.4811 184.04Z" fill="black"/>
<path d="M53.9839 173.182C54.4293 173.465 54.8152 173.806 55.1416 174.206C55.4655 174.61 55.7007 175.041 55.8472 175.499C55.9897 175.954 56.0124 176.402 55.9151 176.843L54.7657 176.603C54.8268 176.333 54.8034 176.047 54.6955 175.747C54.5812 175.448 54.4069 175.16 54.1727 174.885C53.9385 174.609 53.6657 174.373 53.3543 174.176C52.9996 173.951 52.6342 173.799 52.2583 173.721C51.8759 173.645 51.5239 173.651 51.2023 173.74C50.8806 173.829 50.6311 174.013 50.4538 174.293C50.2714 174.581 50.2212 174.878 50.3034 175.184C50.383 175.494 50.5429 175.8 50.7828 176.101C51.0203 176.406 51.2878 176.695 51.5854 176.966C52.097 177.423 52.5244 177.882 52.8678 178.343C53.2047 178.805 53.4052 179.277 53.4694 179.76C53.5297 180.24 53.3962 180.738 53.0689 181.255C52.7641 181.736 52.36 182.068 51.8568 182.252C51.3496 182.433 50.8049 182.477 50.2228 182.385C49.6406 182.292 49.0855 182.078 48.5573 181.743C48.1198 181.466 47.7398 181.128 47.4173 180.731C47.0884 180.334 46.8487 179.906 46.6983 179.446C46.5479 178.986 46.5224 178.525 46.6218 178.063L47.7792 178.316C47.7156 178.591 47.741 178.878 47.8553 179.177C47.9633 179.477 48.1356 179.763 48.3723 180.035C48.6025 180.308 48.8753 180.544 49.1907 180.744C49.539 180.97 49.9023 181.121 50.2808 181.195C50.6592 181.269 51.0093 181.261 51.3309 181.172C51.6525 181.084 51.9007 180.901 52.0756 180.625C52.2855 180.294 52.3599 179.985 52.2989 179.698C52.2315 179.412 52.0735 179.129 51.825 178.85C51.5764 178.571 51.2842 178.278 50.9483 177.971C50.4697 177.541 50.0643 177.082 49.732 176.595C49.3972 176.112 49.1943 175.622 49.1232 175.124C49.0483 174.623 49.1607 174.136 49.4605 173.663C49.7653 173.182 50.1713 172.851 50.6785 172.67C51.1818 172.486 51.7245 172.441 52.3066 172.533C52.8888 172.626 53.4478 172.843 53.9839 173.182Z" fill="black"/>
<path d="M38.2467 160.278C38.7119 160.75 39.0562 161.285 39.2796 161.884C39.4997 162.486 39.6008 163.107 39.583 163.747C39.5586 164.387 39.4155 165.013 39.1537 165.625C38.8886 166.234 38.5068 166.784 38.0083 167.275C37.5098 167.767 36.9544 168.141 36.342 168.397C35.7264 168.65 35.1001 168.782 34.4632 168.794C33.8196 168.806 33.2 168.696 32.6044 168.464C32.0054 168.235 31.4734 167.885 31.0082 167.413C30.4513 166.848 30.0698 166.199 29.8639 165.464C29.658 164.73 29.6188 163.993 29.7462 163.251L30.8772 163.601C30.8008 164.135 30.8481 164.668 31.0191 165.201C31.1836 165.733 31.4591 166.195 31.8457 166.588C32.2028 166.95 32.6101 167.217 33.0675 167.388C33.5217 167.557 33.993 167.633 34.4815 167.616C34.97 167.6 35.4476 167.493 35.9144 167.295C36.3811 167.097 36.8039 166.811 37.1827 166.438C37.5649 166.061 37.8584 165.641 38.063 165.177C38.2643 164.71 38.3767 164.232 38.4 163.744C38.42 163.252 38.3492 162.778 38.1875 162.322C38.0192 161.865 37.7597 161.459 37.4092 161.103C37.0095 160.698 36.5479 160.413 36.0244 160.247C35.4943 160.082 34.9651 160.03 34.4366 160.092L34.1083 158.951C34.8516 158.835 35.5888 158.884 36.3198 159.101C37.0475 159.321 37.6898 159.713 38.2467 160.278Z" fill="black"/>
<path d="M30.1947 150.59C30.5841 151.127 30.8444 151.707 30.9757 152.333C31.1032 152.961 31.1084 153.592 30.9913 154.225C30.8742 154.858 30.6423 155.456 30.2957 156.019C29.9453 156.585 29.4869 157.073 28.9205 157.485C28.3541 157.896 27.7495 158.179 27.1068 158.335C26.4603 158.493 25.818 158.529 25.1798 158.445C24.5417 158.36 23.9456 158.159 23.3914 157.84C22.8334 157.525 22.3597 157.099 21.9703 156.563C21.5782 156.023 21.3184 155.438 21.1909 154.81C21.0596 154.185 21.0525 153.555 21.1696 152.922C21.2867 152.289 21.5219 151.692 21.875 151.13C22.2216 150.567 22.6781 150.079 23.2445 149.668C23.8109 149.257 24.4174 148.972 25.0639 148.814C25.7039 148.655 26.3429 148.618 26.9811 148.702C27.6192 148.787 28.2172 148.987 28.7752 149.303C29.3294 149.621 29.8026 150.05 30.1947 150.59ZM29.2431 151.281C28.9442 150.87 28.5828 150.547 28.1589 150.313C27.7323 150.074 27.2763 149.927 26.7908 149.87C26.2988 149.812 25.8092 149.845 25.3219 149.968C24.8281 150.09 24.366 150.307 23.9355 150.62C23.505 150.932 23.1553 151.305 22.8863 151.736C22.6136 152.171 22.4324 152.628 22.3429 153.108C22.2468 153.588 22.2459 154.067 22.3403 154.546C22.4319 155.022 22.6258 155.464 22.9219 155.872C23.2208 156.283 23.5835 156.608 24.0102 156.846C24.4341 157.08 24.892 157.227 25.384 157.285C25.8694 157.341 26.3591 157.309 26.8529 157.187C27.3402 157.064 27.799 156.846 28.2295 156.533C28.6638 156.218 29.0154 155.844 29.2843 155.413C29.5533 154.981 29.7358 154.525 29.8319 154.046C29.9252 153.563 29.9261 153.084 29.8345 152.608C29.7364 152.131 29.5393 151.689 29.2431 151.281Z" fill="black"/>
<path d="M25.1727 143.205L16.4707 147.712L15.8848 146.581L20.4467 138.707L13.6343 142.236L13.0934 141.192L21.7954 136.684L22.3781 137.809L17.8194 145.689L24.6318 142.16L25.1727 143.205Z" fill="black"/>
<path d="M8.03306 128.038L9.14273 127.648L10.2228 130.726L18.3603 127.871L18.7497 128.981L10.6121 131.836L11.6899 134.907L10.5802 135.297L8.03306 128.038Z" fill="black"/>
<path d="M5.92873 119.257L5.65058 117.864L14.5636 112.451L14.8075 113.673L12.9867 114.779L13.8869 119.289L15.9913 119.604L16.2366 120.833L5.92873 119.257ZM12.6487 119.094L11.9184 115.435L7.26623 118.269L12.6487 119.094Z" fill="black"/>
<path d="M14.0623 103.558C14.0965 104.22 13.9982 104.849 13.7674 105.445C13.5319 106.041 13.1949 106.573 12.7565 107.039C12.3131 107.502 11.7903 107.874 11.1882 108.158C10.5858 108.437 9.93507 108.594 9.23601 108.63C8.53694 108.667 7.87343 108.577 7.24547 108.362C6.61727 108.142 6.06114 107.825 5.57708 107.411C5.08813 106.992 4.69808 106.499 4.40694 105.929C4.11115 105.361 3.94612 104.745 3.91187 104.084C3.87087 103.291 4.0172 102.552 4.35089 101.867C4.68457 101.181 5.14533 100.604 5.73317 100.134L6.34633 101.147C5.93446 101.495 5.61559 101.925 5.38974 102.437C5.15899 102.944 5.05784 103.473 5.0863 104.023C5.11259 104.531 5.23973 105.001 5.4677 105.433C5.69543 105.86 5.99729 106.23 6.37327 106.543C6.74925 106.855 7.17741 107.092 7.65776 107.254C8.13811 107.416 8.64394 107.484 9.17522 107.456C9.71117 107.428 10.2097 107.309 10.6707 107.098C11.1315 106.883 11.5328 106.6 11.8745 106.251C12.216 105.897 12.478 105.495 12.6603 105.047C12.8378 104.594 12.9137 104.118 12.8879 103.619C12.8584 103.05 12.703 102.53 12.4216 102.059C12.1353 101.583 11.774 101.193 11.3377 100.888L11.85 99.8176C12.4832 100.224 13.0011 100.751 13.4038 101.398C13.8018 102.046 14.0213 102.766 14.0623 103.558Z" fill="black"/>
<path d="M4.77823 87.2037L5.94961 87.3079L5.6605 90.5571L14.2506 91.3214L14.1463 92.4928L5.55627 91.7285L5.26779 94.9707L4.09641 94.8664L4.77823 87.2037Z" fill="black"/>
<path d="M19.5885 68.9414L10.4678 65.3564L10.898 64.262L20.0187 67.8469L19.5885 68.9414Z" fill="black"/>
<path d="M30.2246 49.2027L22.4552 43.2297L23.1719 42.2974L30.009 47.5536L32.684 44.074L33.6164 44.7908L30.2246 49.2027Z" fill="black"/>
<path d="M37.1845 40.7471L30.2267 33.8456L34.4613 29.5766L35.2962 30.4047L31.8898 33.8389L33.8678 35.8009L36.658 32.988L37.4929 33.8161L34.7028 36.629L37.1777 39.084L40.5841 35.6498L41.419 36.478L37.1845 40.7471Z" fill="black"/>
<path d="M44.9851 20.9419L45.7049 21.8719L43.1253 23.8685L48.4039 30.6883L47.4739 31.4081L42.1953 24.5883L39.6213 26.5806L38.9015 25.6507L44.9851 20.9419Z" fill="black"/>
<path d="M51.0638 21.385L49.5168 18.0463L50.518 17.4295L51.7313 20.9737L51.0638 21.385Z" fill="black"/>
<path d="M63.7134 21.651C63.2376 21.8783 62.7434 22.0238 62.2308 22.0876C61.7163 22.1472 61.2263 22.1175 60.7609 21.9984C60.2997 21.8774 59.9081 21.6585 59.5861 21.3416L60.3998 20.4953C60.5966 20.6909 60.851 20.8228 61.1629 20.8911C61.4769 20.9531 61.8129 20.9581 62.1708 20.9061C62.5286 20.8542 62.8739 20.7487 63.2066 20.5898C63.5856 20.4088 63.908 20.1798 64.174 19.9028C64.4421 19.6196 64.6239 19.3182 64.7194 18.9984C64.815 18.6787 64.7913 18.3694 64.6485 18.0704C64.5017 17.763 64.2768 17.5627 63.9737 17.4696C63.6686 17.3722 63.3247 17.3451 62.9419 17.3883C62.5572 17.4273 62.1707 17.5006 61.7826 17.6084C61.1237 17.799 60.5079 17.9173 59.9352 17.9633C59.3646 18.0031 58.8578 17.9219 58.4148 17.7198C57.9759 17.5157 57.6248 17.1378 57.3613 16.5861C57.1159 16.0724 57.0491 15.5535 57.1609 15.0295C57.2768 14.5035 57.5288 14.0186 57.9167 13.5747C58.3046 13.1309 58.7807 12.7742 59.345 12.5047C59.8124 12.2814 60.3003 12.1389 60.8086 12.0771C61.3191 12.0091 61.8092 12.0336 62.2788 12.1507C62.7485 12.2677 63.1525 12.491 63.491 12.8207L62.6616 13.6667C62.4628 13.4669 62.2063 13.336 61.8922 13.274C61.5804 13.2057 61.2465 13.1997 60.8906 13.2559C60.537 13.3059 60.1917 13.4113 59.8548 13.5722C59.478 13.747 59.1577 13.975 58.8938 14.2562C58.6299 14.5374 58.4501 14.8378 58.3546 15.1576C58.2591 15.4773 58.2817 15.7845 58.4225 16.0793C58.5914 16.433 58.8138 16.6604 59.0896 16.7614C59.3676 16.8562 59.6908 16.8724 60.0593 16.8102C60.4278 16.748 60.8313 16.6561 61.2697 16.5346C61.8887 16.358 62.4927 16.2582 63.0817 16.2355C63.6688 16.2085 64.1921 16.2973 64.6518 16.5018C65.1157 16.7043 65.4684 17.0582 65.7097 17.5635C65.9551 18.0773 66.0198 18.5972 65.9038 19.1232C65.7921 19.6471 65.5423 20.1311 65.1543 20.5749C64.7664 21.0188 64.2861 21.3775 63.7134 21.651Z" fill="black"/>
<path d="M83.0132 15.1735C82.3662 15.3168 81.7297 15.324 81.1036 15.1949C80.4766 15.0614 79.8967 14.817 79.364 14.4618C78.8348 14.101 78.3805 13.6471 78.0013 13.1002C77.6266 12.5522 77.3636 11.9366 77.2123 11.2531C77.0609 10.5697 77.0394 9.9005 77.1476 9.24559C77.2605 8.58967 77.4811 7.98875 77.8095 7.44283C78.1414 6.89134 78.5639 6.42496 79.0769 6.04367C79.589 5.65783 80.1685 5.39327 80.8155 5.24998C81.59 5.07844 82.3429 5.1005 83.0742 5.31615C83.8055 5.5318 84.4513 5.89063 85.0118 6.39265L84.1146 7.16493C83.7028 6.81639 83.2259 6.57308 82.6839 6.43501C82.1454 6.29138 81.6074 6.2791 81.0697 6.39816C80.5731 6.50815 80.1306 6.71131 79.7421 7.00765C79.3582 7.30298 79.0434 7.66188 78.7976 8.08436C78.5518 8.50683 78.3887 8.96834 78.3084 9.46889C78.2281 9.96943 78.2454 10.4794 78.3604 10.9988C78.4765 11.5228 78.6766 11.9947 78.9607 12.4145C79.2495 12.8333 79.5944 13.1823 79.9956 13.4615C80.4014 13.7397 80.8406 13.9316 81.3133 14.0372C81.7895 14.1373 82.2714 14.1333 82.7589 14.0254C83.3148 13.9023 83.8019 13.6629 84.2202 13.3074C84.6421 12.9463 84.9671 12.5254 85.1953 12.0447L86.3362 12.3728C86.0401 13.0645 85.6061 13.6625 85.0343 14.1667C84.4615 14.6664 83.7878 15.002 83.0132 15.1735Z" fill="black"/>
<path d="M95.4973 13.5023C94.8362 13.5472 94.2057 13.4591 93.606 13.2379C93.006 13.012 92.4691 12.6813 91.9951 12.2457C91.5212 11.8102 91.1378 11.296 90.845 10.7031C90.5518 10.1056 90.3815 9.45766 90.3341 8.75926C90.2867 8.06087 90.3679 7.39818 90.5779 6.77117C90.7876 6.13951 91.0978 5.57587 91.5085 5.08024C91.9192 4.58461 92.4067 4.18666 92.971 3.8864C93.535 3.58149 94.1475 3.40659 94.8087 3.36169C95.4745 3.31647 96.1074 3.4068 96.7074 3.63266C97.3071 3.85387 97.8439 4.18226 98.3178 4.61781C98.7918 5.05337 99.173 5.57006 99.4615 6.16789C99.7543 6.76074 99.9245 7.40637 99.9719 8.10476C100.019 8.80315 99.9382 9.46817 99.7285 10.0998C99.5232 10.7265 99.2151 11.2877 98.8044 11.7833C98.3937 12.2789 97.9064 12.6792 97.3424 12.9841C96.7782 13.2844 96.1631 13.4571 95.4973 13.5023ZM95.4176 12.329C95.9251 12.2946 96.3908 12.16 96.8145 11.9255C97.2429 11.6906 97.6102 11.3826 97.9164 11.0017C98.227 10.6158 98.4596 10.1837 98.6142 9.70542C98.7732 9.22221 98.8346 8.71521 98.7986 8.18444C98.7625 7.65366 98.6331 7.15963 98.4103 6.70234C98.1871 6.2404 97.8959 5.84388 97.5367 5.5128C97.1818 5.17674 96.7762 4.9213 96.32 4.74647C95.8684 4.57133 95.3912 4.50084 94.8883 4.53499C94.3808 4.56945 93.9129 4.70413 93.4845 4.93903C93.0607 5.17361 92.6936 5.48387 92.383 5.8698C92.0768 6.25076 91.8442 6.68284 91.6852 7.16606C91.5306 7.6443 91.4713 8.14881 91.5074 8.67959C91.5437 9.21502 91.6733 9.71138 91.8962 10.1687C92.119 10.626 92.4079 11.0226 92.7628 11.3587C93.1224 11.6944 93.5279 11.9499 93.9795 12.125C94.4354 12.2952 94.9148 12.3632 95.4176 12.329Z" fill="black"/>
<path d="M104.424 13.1696L105.23 3.40277L106.5 3.50755L110.745 11.556L111.376 3.90997L112.548 4.00669L111.742 13.7735L110.48 13.6693L106.227 5.62028L105.596 13.2663L104.424 13.1696Z" fill="black"/>
<path d="M126.381 6.71397L126.121 7.8609L122.94 7.14015L121.034 15.551L119.887 15.2912L121.793 6.88031L118.618 6.16111L118.878 5.01417L126.381 6.71397Z" fill="black"/>
<path d="M134.932 9.59872L136.26 10.1036L136.109 20.5301L134.944 20.0874L134.975 17.9574L130.676 16.3233L129.29 17.9385L128.119 17.4933L134.932 9.59872ZM131.499 15.3782L134.987 16.7039L135.058 11.2567L131.499 15.3782Z" fill="black"/>
<path d="M143.91 24.8287C143.331 24.5061 142.851 24.0886 142.468 23.5763C142.088 23.0599 141.817 22.4921 141.655 21.8727C141.499 21.2515 141.461 20.6105 141.541 19.9497C141.625 19.2913 141.837 18.6563 142.178 18.0449C142.519 17.4335 142.947 16.919 143.463 16.5013C143.983 16.086 144.547 15.7834 145.155 15.5934C145.77 15.4017 146.395 15.3337 147.032 15.3894C147.671 15.4411 148.28 15.6283 148.859 15.951C149.552 16.3372 150.1 16.8539 150.503 17.5008C150.907 18.1477 151.151 18.845 151.237 19.5926L150.053 19.5738C149.977 19.0398 149.782 18.5411 149.469 18.0779C149.161 17.6129 148.767 17.2463 148.286 16.9781C147.842 16.7305 147.376 16.5884 146.889 16.5519C146.406 16.5176 145.932 16.5768 145.468 16.7293C145.004 16.8818 144.575 17.1185 144.183 17.4393C143.79 17.7601 143.464 18.1528 143.205 18.6175C142.944 19.0863 142.78 19.5719 142.714 20.0745C142.651 20.5794 142.677 21.0694 142.792 21.5446C142.91 22.022 143.111 22.4572 143.394 22.8502C143.684 23.2413 144.047 23.5584 144.483 23.8016C144.98 24.0788 145.503 24.2234 146.052 24.2356C146.607 24.2459 147.13 24.1472 147.62 23.9394L148.254 24.9425C147.574 25.2628 146.852 25.4216 146.09 25.4187C145.33 25.4117 144.603 25.215 143.91 24.8287Z" fill="black"/>
<path d="M162.692 25.6585L161.981 26.5954L159.382 24.6239L154.17 31.4945L153.233 30.7838L158.445 23.9132L155.852 21.9459L156.563 21.009L162.692 25.6585Z" fill="black"/>
<path d="M170.299 47.9096L178.182 42.0883L178.881 43.0343L170.997 48.8557L170.299 47.9096Z" fill="black"/>
<path d="M181.361 67.4074L190.55 63.9999L190.958 65.1025L182.873 68.1011L184.399 72.2163L183.296 72.6252L181.361 67.4074Z" fill="black"/>
<path d="M184.836 77.7902L194.379 75.5636L195.745 81.4194L194.6 81.6866L193.501 76.9761L190.788 77.609L191.688 81.4674L190.543 81.7346L189.643 77.8762L186.248 78.6682L187.347 83.3787L186.202 83.6459L184.836 77.7902Z" fill="black"/>
<path d="M197.466 94.926L196.296 95.0415L195.976 91.7953L187.393 92.6428L187.278 91.4725L195.86 90.625L195.54 87.3858L196.71 87.2702L197.466 94.926Z" fill="black"/>
<path d="M193.859 99.8415L197.509 100.305L197.5 101.481L193.852 100.625L193.859 99.8415Z" fill="black"/>
<path d="M186.91 110.418C186.97 109.894 187.109 109.398 187.328 108.93C187.551 108.462 187.836 108.063 188.184 107.732C188.532 107.405 188.926 107.19 189.365 107.086L189.65 108.225C189.379 108.288 189.132 108.433 188.909 108.661C188.689 108.894 188.507 109.176 188.36 109.507C188.214 109.837 188.12 110.186 188.078 110.552C188.03 110.969 188.053 111.364 188.146 111.737C188.243 112.114 188.402 112.429 188.622 112.679C188.842 112.93 189.117 113.075 189.446 113.112C189.784 113.151 190.074 113.067 190.314 112.86C190.558 112.653 190.764 112.376 190.931 112.029C191.102 111.683 191.245 111.316 191.36 110.93C191.549 110.271 191.776 109.686 192.041 109.177C192.311 108.672 192.649 108.286 193.056 108.018C193.462 107.755 193.968 107.658 194.576 107.728C195.141 107.793 195.616 108.012 196.001 108.385C196.385 108.763 196.662 109.234 196.832 109.799C197.002 110.363 197.051 110.956 196.979 111.577C196.92 112.092 196.781 112.581 196.564 113.044C196.35 113.513 196.069 113.915 195.72 114.251C195.371 114.586 194.967 114.81 194.508 114.922L194.232 113.769C194.507 113.707 194.754 113.559 194.974 113.326C195.197 113.098 195.38 112.819 195.521 112.488C195.667 112.161 195.761 111.813 195.804 111.442C195.856 111.03 195.833 110.637 195.735 110.264C195.637 109.891 195.478 109.58 195.258 109.329C195.038 109.078 194.766 108.934 194.441 108.896C194.052 108.852 193.741 108.919 193.509 109.099C193.281 109.284 193.095 109.549 192.952 109.895C192.809 110.24 192.673 110.63 192.542 111.066C192.363 111.685 192.127 112.249 191.833 112.76C191.544 113.272 191.191 113.668 190.773 113.949C190.355 114.234 189.868 114.345 189.311 114.281C188.746 114.216 188.271 113.994 187.887 113.616C187.503 113.243 187.225 112.775 187.056 112.21C186.886 111.646 186.837 111.048 186.91 110.418Z" fill="black"/>
<path d="M182.142 130.206C182.364 129.582 182.696 129.039 183.138 128.577C183.585 128.117 184.1 127.755 184.684 127.493C185.271 127.236 185.896 127.093 186.561 127.062C187.225 127.036 187.886 127.14 188.545 127.375C189.205 127.61 189.783 127.947 190.28 128.387C190.776 128.831 191.168 129.337 191.456 129.906C191.746 130.48 191.917 131.086 191.967 131.723C192.022 132.362 191.938 132.993 191.716 133.617C191.45 134.365 191.031 134.991 190.46 135.496C189.888 136.001 189.241 136.357 188.518 136.565L188.341 135.395C188.855 135.231 189.314 134.956 189.719 134.571C190.127 134.191 190.423 133.741 190.608 133.223C190.779 132.744 190.842 132.261 190.797 131.774C190.751 131.292 190.614 130.835 190.387 130.402C190.16 129.969 189.856 129.586 189.474 129.252C189.093 128.918 188.652 128.661 188.151 128.483C187.645 128.303 187.139 128.221 186.632 128.239C186.124 128.261 185.645 128.368 185.195 128.559C184.744 128.755 184.348 129.025 184.007 129.37C183.67 129.72 183.417 130.13 183.249 130.601C183.058 131.137 183.002 131.677 183.081 132.22C183.163 132.769 183.346 133.268 183.632 133.717L182.748 134.509C182.32 133.891 182.044 133.205 181.92 132.453C181.802 131.702 181.875 130.953 182.142 130.206Z" fill="black"/>
<path d="M176.922 141.67C177.235 141.086 177.645 140.598 178.151 140.208C178.661 139.82 179.227 139.541 179.848 139.371C180.468 139.201 181.108 139.149 181.765 139.216C182.427 139.285 183.067 139.485 183.684 139.816C184.3 140.147 184.819 140.568 185.238 141.079C185.662 141.593 185.975 142.155 186.176 142.766C186.378 143.377 186.456 144.002 186.41 144.639C186.369 145.279 186.192 145.891 185.878 146.475C185.563 147.063 185.15 147.551 184.64 147.939C184.134 148.33 183.57 148.61 182.949 148.78C182.329 148.95 181.688 148.999 181.029 148.925C180.371 148.858 179.733 148.659 179.117 148.328C178.5 147.997 177.979 147.575 177.556 147.062C177.134 146.555 176.822 145.996 176.621 145.385C176.419 144.773 176.339 144.148 176.38 143.508C176.426 142.87 176.606 142.258 176.922 141.67ZM177.958 142.226C177.718 142.674 177.584 143.14 177.558 143.623C177.529 144.111 177.595 144.586 177.755 145.048C177.917 145.516 178.159 145.943 178.482 146.328C178.807 146.719 179.204 147.041 179.673 147.292C180.141 147.544 180.629 147.697 181.134 147.751C181.644 147.807 182.135 147.771 182.606 147.643C183.08 147.521 183.511 147.313 183.902 147.019C184.29 146.73 184.604 146.363 184.842 145.919C185.082 145.471 185.217 145.003 185.246 144.515C185.272 144.031 185.204 143.556 185.043 143.087C184.883 142.626 184.64 142.199 184.315 141.807C183.992 141.422 183.596 141.104 183.128 140.852C182.655 140.599 182.165 140.445 181.66 140.391C181.154 140.336 180.664 140.37 180.191 140.492C179.716 140.618 179.284 140.826 178.895 141.116C178.509 141.412 178.196 141.781 177.958 142.226Z" fill="black"/>
<path d="M172.465 149.409L180.31 155.282L179.546 156.302L170.472 155.621L176.614 160.219L175.909 161.161L168.064 155.288L168.823 154.273L177.902 154.948L171.76 150.351L172.465 149.409Z" fill="black"/>
<path d="M166.265 171.437L165.432 170.607L167.733 168.295L161.621 162.211L162.45 161.378L168.563 167.462L170.859 165.155L171.692 165.984L166.265 171.437Z" fill="black"/>
<path d="M159.273 177.152L158.14 178.009L149.388 172.34L150.382 171.589L152.17 172.747L155.839 169.973L155.207 167.942L156.206 167.186L159.273 177.152ZM156.202 171.173L153.225 173.423L157.802 176.378L156.202 171.173Z" fill="black"/>
<path d="M141.601 176.665C142.182 176.346 142.791 176.161 143.428 176.109C144.067 176.062 144.692 176.134 145.303 176.325C145.912 176.524 146.475 176.832 146.993 177.251C147.506 177.672 147.931 178.189 148.268 178.803C148.605 179.416 148.813 180.053 148.892 180.712C148.968 181.373 148.925 182.011 148.762 182.628C148.598 183.25 148.323 183.816 147.938 184.326C147.554 184.84 147.072 185.256 146.491 185.575C145.796 185.957 145.067 186.146 144.305 186.144C143.542 186.142 142.822 185.979 142.143 185.654L142.788 184.661C143.281 184.88 143.807 184.98 144.366 184.961C144.923 184.948 145.443 184.809 145.925 184.544C146.371 184.299 146.739 183.98 147.029 183.587C147.315 183.196 147.516 182.763 147.634 182.289C147.752 181.814 147.779 181.325 147.716 180.822C147.652 180.319 147.493 179.835 147.237 179.368C146.979 178.898 146.654 178.501 146.264 178.178C145.869 177.857 145.44 177.618 144.977 177.463C144.51 177.309 144.034 177.248 143.551 177.279C143.066 177.317 142.604 177.456 142.167 177.696C141.667 177.97 141.267 178.336 140.965 178.795C140.661 179.259 140.467 179.754 140.383 180.28L139.196 180.285C139.286 179.538 139.535 178.842 139.943 178.198C140.353 177.558 140.905 177.047 141.601 176.665Z" fill="black"/>
<path d="M130.918 192.136L130.502 191.036L133.553 189.882L130.503 181.816L131.603 181.4L134.653 189.466L137.698 188.315L138.114 189.415L130.918 192.136Z" fill="black"/>
<path d="M114.998 188.329L115.511 198.115L114.336 198.177L113.823 188.39L114.998 188.329Z" fill="black"/>
</svg>
